<?xml version="1.0" standalone="no"?>
<!DOCTYPE svg PUBLIC "-//W3C//DTD SVG 1.1//EN" "http://www.w3.org/Graphics/SVG/1.1/DTD/svg11.dtd" >
<svg xmlns="http://www.w3.org/2000/svg" xmlns:xlink="http://www.w3.org/1999/xlink" version="1.1">
<metadata></metadata>
<defs>
<font id="rimouskisemibold" horiz-adv-x="1345" >
<font-face units-per-em="2048" ascent="1524" descent="-524" />
<missing-glyph horiz-adv-x="479" />
<glyph unicode="&#x28;C&#x29;" horiz-adv-x="1687" d="M61 745q0 162 61.5 304.5t167 249t248 168t304.5 61.5t305 -61.5t249.5 -168t168 -249t61.5 -304.5q0 -164 -61.5 -305t-168 -247.5t-249.5 -167t-305 -60.5t-304.5 60.5t-248 167t-167 247.5t-61.5 305zM266 745q0 -119 45 -223t123 -183t182.5 -124t225.5 -45t226.5 45 t184 124t124.5 183.5t46 222.5q0 119 -46 224.5t-124.5 183.5t-184 124t-226.5 46t-225.5 -46t-182.5 -124t-123 -183.5t-45 -224.5zM479 743q0 76 29 142.5t78 116t114.5 78t141.5 28.5q59 0 126.5 -19.5t110.5 -58.5q49 -45 49 -104q0 -41 -30.5 -72t-71.5 -31t-82 41 q-18 20 -46 28.5t-56 8.5q-74 0 -116 -44t-42 -114q0 -68 42 -112.5t116 -44.5q72 0 112 43q31 33 72 33q53 0 76.5 -30t23.5 -71q0 -27 -11 -53.5t-34 -44.5q-45 -35 -104 -58.5t-135 -23.5t-141.5 28.5t-114.5 78t-78 115t-29 140.5z" />
<glyph unicode="&#x28;R&#x29;" horiz-adv-x="1220" d="M100 1024q0 104 40 197.5t109.5 163t163 109.5t197.5 40q106 0 198.5 -40t162 -109.5t109.5 -163t40 -197.5q0 -106 -40 -199.5t-109.5 -163t-161.5 -109.5t-199 -40q-104 0 -197.5 40t-163 109.5t-109.5 163t-40 199.5zM242 1024q0 -78 28.5 -145.5t78.5 -118.5t118 -80 t143 -29q78 0 145.5 29t119 80t80 118.5t28.5 145.5t-28.5 145.5t-80 118.5t-119 80t-145.5 29q-76 0 -143.5 -29t-117.5 -80t-78.5 -118.5t-28.5 -145.5zM451 823v422q0 35 21.5 48.5t57.5 13.5h84q78 0 129.5 -46.5t51.5 -113.5q0 -61 -28 -97t-62 -59l77 -135 q12 -18 13 -35q0 -27 -17.5 -42t-40.5 -15q-14 0 -28.5 7t-24.5 26l-88 166l-21 2v-142q0 -29 -18 -45t-43 -16t-44 16.5t-19 44.5zM575 1077h52q49 4 49 58q0 29 -18.5 41t-47.5 12h-35v-111z" />
<glyph horiz-adv-x="0" />
<glyph unicode="&#xd;" horiz-adv-x="479" />
<glyph horiz-adv-x="479" />
<glyph unicode=" "  horiz-adv-x="479" />
<glyph unicode="&#x09;" horiz-adv-x="479" />
<glyph unicode="&#xa0;" horiz-adv-x="479" />
<glyph unicode="!" horiz-adv-x="436" d="M98 109v124q0 51 34 84t83 33q55 0 87 -32.5t32 -84.5v-124q0 -55 -32 -87t-87 -32q-49 0 -83 31.5t-34 87.5zM98 584v800q0 53 34 85t83 32q55 0 87 -31.5t32 -85.5v-800q0 -51 -32 -84t-87 -33q-49 0 -83 32.5t-34 84.5z" />
<glyph unicode="&#x22;" horiz-adv-x="735" d="M100 1110v371q0 47 30 74.5t73 27.5q47 0 74.5 -27.5t27.5 -74.5v-371q0 -47 -27.5 -73.5t-74.5 -26.5q-43 0 -73 26.5t-30 73.5zM428 1110v371q0 47 27.5 74.5t74.5 27.5t75 -27.5t28 -74.5v-371q0 -47 -27.5 -73.5t-75.5 -26.5q-47 0 -74.5 26.5t-27.5 73.5z" />
<glyph unicode="#" horiz-adv-x="1267" d="M80 612q0 47 29.5 75t72.5 28h140l51 162h-131q-45 0 -74 27.5t-29 74.5q0 43 29 72.5t74 29.5h194l115 349q12 37 39.5 54t56.5 17q37 0 69 -23.5t32 -76.5q0 -18 -7 -43l-88 -277h156l113 349q12 37 39.5 54t56.5 17q39 0 70.5 -24.5t31.5 -75.5q0 -20 -8 -43l-86 -277 h59q47 0 75 -29.5t28 -72.5q0 -47 -27.5 -74.5t-75.5 -27.5h-127l-51 -162h119q47 0 74.5 -28t27.5 -75t-27.5 -73.5t-74.5 -26.5h-182l-142 -436q-29 -86 -104 -86q-37 0 -69.5 24.5t-32.5 71.5q0 10 2 19.5t6 19.5l125 387h-158l-141 -436q-29 -86 -103 -86 q-39 0 -70.5 24.5t-31.5 71.5q0 10 2 19.5t6 19.5l125 387h-76q-43 0 -72.5 26.5t-29.5 73.5zM537 715h157l49 162h-155z" />
<glyph unicode="$" horiz-adv-x="862" d="M100 332q0 47 27 75.5t68 28.5q29 0 49 -10t41 -29q25 -23 51 -35t63 -12q86 0 121 42t35 106q0 51 -19.5 81.5t-52.5 51.5q-29 18 -61.5 30.5t-68.5 25.5t-69.5 29.5t-64.5 41.5q-41 33 -66.5 85t-25.5 138q0 104 54.5 184t150.5 111v125q0 47 29.5 73.5t72.5 26.5 q55 0 79 -33.5t24 -89.5v-100q29 -10 62.5 -27.5t59.5 -44.5q18 -18 29.5 -39.5t11.5 -52.5q0 -35 -28.5 -64.5t-65.5 -29.5q-23 0 -39 8t-30 21q-23 20 -45.5 32.5t-51.5 12.5q-51 0 -81.5 -30t-30.5 -83q0 -55 41 -82t98 -47q66 -25 119 -56.5t94 -76.5q37 -41 58.5 -95.5 t21.5 -125.5q0 -55 -18.5 -107.5t-51.5 -97.5t-78 -79t-98 -50v-72q0 -47 -28.5 -74.5t-75.5 -27.5t-74 27.5t-27 74.5v66q-47 10 -89 32.5t-70 51.5q-49 45 -50 90z" />
<glyph unicode="%" horiz-adv-x="1613" d="M100 1165q0 74 28 138.5t75 111.5t111.5 75t136.5 28q74 0 137 -28t111.5 -75t76 -111.5t27.5 -138.5q0 -72 -27.5 -135t-76 -110.5t-112 -75t-136.5 -27.5q-72 0 -136.5 27.5t-111.5 75t-75 111t-28 134.5zM291 1165q0 -66 46 -110.5t114 -44.5t113.5 45t45.5 110 q0 70 -45.5 116t-113.5 46t-114 -46t-46 -116zM328 90q0 10 2 23.5t12 29.5l735 1313q14 25 36.5 35t45.5 10q41 0 73 -25.5t32 -70.5q0 -29 -15 -55l-731 -1309q-16 -29 -39.5 -40t-46.5 -11q-39 0 -71.5 27.5t-32.5 72.5zM811 324q0 74 27.5 137t75 110t110.5 75t135 28 q74 0 137.5 -28t111.5 -75t75.5 -110.5t27.5 -136.5q0 -72 -27.5 -135.5t-75.5 -110.5t-111.5 -75t-137.5 -28q-72 0 -135 28t-110.5 75t-75 110.5t-27.5 135.5zM1001 324q0 -66 46.5 -112t111.5 -46q66 0 113 46t47 112t-47 112.5t-113 46.5t-112 -47t-46 -112z" />
<glyph unicode="&#x26;" horiz-adv-x="1327" d="M61 451q0 70 20.5 134t56.5 121.5t82 106.5t97 86q-41 61 -69.5 132t-28.5 151q0 68 23.5 128t66.5 104t104.5 69.5t137.5 25.5q63 0 123.5 -21.5t106.5 -61.5t74 -98t28 -130q0 -63 -22.5 -115.5t-59.5 -95.5t-83 -80t-95 -67q39 -49 125 -139.5t215 -217.5l67 82 q25 31 51.5 48.5t59.5 17.5q45 0 84 -33t39 -82q0 -45 -29 -76l-113 -121l131 -135q23 -23 28 -42t5 -36q0 -51 -33.5 -83.5t-83.5 -32.5q-23 0 -49 10t-49 35l-104 117q-84 -78 -181.5 -124t-226.5 -46q-102 0 -193.5 32.5t-159 94t-106.5 148.5t-39 194zM297 451 q0 -53 20.5 -96.5t56.5 -75t83 -49t102 -17.5q76 0 140.5 28.5t111.5 75.5q-139 135 -232.5 236.5t-138.5 161.5q-59 -49 -101 -118t-42 -146zM451 1176q0 -39 13 -82t36 -80q59 37 106 82t47 94q0 41 -29.5 65.5t-72.5 24.5t-71.5 -29.5t-28.5 -74.5z" />
<glyph unicode="'" horiz-adv-x="409" d="M100 1110v371q0 47 30 74.5t73 27.5q47 0 74.5 -27.5t27.5 -74.5v-371q0 -47 -27.5 -73.5t-74.5 -26.5q-43 0 -73 26.5t-30 73.5z" />
<glyph unicode="(" horiz-adv-x="745" d="M100 745q0 117 27 232t76 223.5t117.5 205.5t152.5 181q31 31 70 31q45 0 72.5 -33t27.5 -74q0 -37 -33 -73q-135 -139 -219 -314.5t-84 -378.5q0 -207 84 -382t219 -312q33 -37 33 -71q0 -41 -30.5 -71t-73.5 -30q-39 0 -72 27q-84 72 -152.5 167t-115.5 203.5 t-73 228.5t-26 240z" />
<glyph unicode=")" horiz-adv-x="745" d="M100 -20q0 39 33 71q135 137 218 312.5t83 381.5q0 203 -83 378t-218 315q-33 33 -33 73q0 41 28 74t73 33q38 0 69 -31q84 -84 153 -181t118 -205.5t75.5 -223.5t26.5 -232q0 -121 -25.5 -240.5t-73.5 -228t-116 -204t-152 -166.5q-33 -27 -71 -27q-43 0 -74 30t-31 71z " />
<glyph unicode="*" horiz-adv-x="942" d="M100 963q0 51 45 86l129 94l-122 88q-45 31 -46 76q0 41 32 73.5t75 32.5q29 0 61 -22l119 -86l51 151q12 35 39 52.5t56 17.5q41 0 72.5 -28t31.5 -75q0 -12 -2 -23t-6 -22l-45 -139h149q47 0 74 -26.5t27 -71.5q0 -47 -27 -76t-74 -29h-153l49 -143q4 -10 6 -20.5 t2 -18.5q0 -43 -34 -69.5t-66 -26.5q-76 0 -99 61l-53 156l-112 -82q-47 -31 -84 -31q-39 0 -67 31t-28 70z" />
<glyph unicode="+" horiz-adv-x="1075" d="M100 797q0 43 30 71.5t73 28.5h231v238q0 47 27.5 74.5t73.5 27.5q47 0 75.5 -27.5t28.5 -74.5v-238h233q45 0 74 -28.5t29 -71.5q0 -47 -28.5 -75t-74.5 -28h-233v-229q0 -45 -28.5 -72.5t-75.5 -27.5q-45 0 -73 27.5t-28 72.5v229h-231q-43 0 -73 28t-30 75z" />
<glyph unicode="," horiz-adv-x="499" d="M98 27q0 25 8 47l64 207q12 41 44 61t69 20q45 0 80.5 -29.5t35.5 -82.5v-21.5t-4 -19.5l-65 -201q-31 -96 -119 -96q-37 0 -75 30.5t-38 84.5z" />
<glyph unicode="-" horiz-adv-x="870" d="M35 641q0 53 33.5 86t83.5 33h563q53 0 86 -33t33 -86t-33 -85t-86 -32h-563q-49 0 -83 32t-34 85z" />
<glyph unicode="." horiz-adv-x="436" d="M98 109v135q0 51 34 83.5t83 32.5q55 0 87 -32.5t32 -83.5v-135q0 -55 -32 -87t-87 -32q-49 0 -83 31.5t-34 87.5z" />
<glyph unicode="/" horiz-adv-x="821" d="M98 92q0 18 6 35l416 1303q12 39 39.5 55t58.5 16q39 0 70 -24.5t31 -69.5v-16.5t-4 -18.5l-412 -1300q-14 -43 -40.5 -62.5t-59.5 -19.5q-39 0 -72 27.5t-33 74.5z" />
<glyph unicode="0" horiz-adv-x="1683" d="M59 745q0 162 61.5 304.5t167 249t248 168t304.5 61.5t304 -61.5t248.5 -168t168 -249t61.5 -304.5q0 -164 -61.5 -305t-168 -246.5t-249 -166t-303.5 -60.5q-162 0 -304.5 60.5t-248 166t-167 246.5t-61.5 305zM295 745q0 -113 42 -211t115.5 -171.5t173 -116.5 t214.5 -43q113 0 213 43t175 116.5t118 172t43 210.5q0 113 -43 212.5t-118 174t-175.5 117.5t-212.5 43q-115 0 -214.5 -43t-173 -117.5t-115.5 -174t-42 -212.5z" />
<glyph unicode="1" horiz-adv-x="563" d="M16 1016q0 33 17 59l188 332q23 41 54.5 67.5t72.5 26.5q63 0 90 -35.5t27 -89.5v-1270q0 -55 -32 -85.5t-85 -30.5q-51 0 -85 29.5t-34 89.5v884q-16 -35 -41.5 -61.5t-60.5 -26.5q-47 0 -79 32t-32 79z" />
<glyph unicode="2" horiz-adv-x="1058" d="M55 115q0 51 43 98l432 440q92 94 155 185.5t65 181.5q0 43 -17.5 88t-50.5 82t-82 60.5t-113 23.5q-63 0 -115.5 -24.5t-99.5 -65.5q-23 -20 -43 -28.5t-49 -8.5q-47 0 -80.5 31.5t-33.5 83.5q0 45 34 88q78 90 179 124.5t210 34.5q121 0 213.5 -41t155 -108.5 t94 -155.5t31.5 -184q0 -80 -22.5 -149.5t-61.5 -135t-91 -126t-112 -122.5l-247 -251h444q53 0 85 -32t32 -85q0 -55 -32 -87t-85 -32h-711q-59 0 -93 34t-34 81z" />
<glyph unicode="3" horiz-adv-x="1021" d="M51 209q0 55 33 86t84 31q18 0 38.5 -7.5t47.5 -29.5q57 -47 98 -60.5t92 -13.5q61 0 111.5 21.5t87.5 58.5t56.5 87t19.5 107q0 123 -70.5 200t-204.5 77q-51 0 -84.5 34t-33.5 81q0 16 7 36.5t22.5 38t38 28.5t50.5 11q63 0 103.5 40t40.5 104q0 61 -38 99t-95 38 q-35 0 -62.5 -12.5t-44.5 -28.5q-29 -29 -45 -33t-41 -4q-49 0 -83 38t-34 77t28 74.5t71 63.5t96 43t104 15q82 0 152 -28.5t120 -77.5t77.5 -112.5t27.5 -131.5q0 -90 -30.5 -149.5t-83.5 -100.5q59 -25 105 -66.5t78 -97t48 -121t16 -135.5q0 -106 -40 -198t-108.5 -161 t-161.5 -107.5t-200 -38.5q-121 0 -204.5 41t-149.5 100q-23 20 -31 40.5t-8 43.5z" />
<glyph unicode="4" horiz-adv-x="946" d="M16 373q0 33 21 69l569 998q35 61 107 61q59 0 90 -32.5t31 -84.5v-897q35 -6 60.5 -33.5t25.5 -76.5q0 -100 -89 -117v-154q0 -55 -30.5 -85.5t-85.5 -30.5t-86 30.5t-31 85.5v148h-465q-47 0 -82 32.5t-35 86.5zM322 489h276v465z" />
<glyph unicode="5" horiz-adv-x="1064" d="M49 254q0 47 32 85t87 38q39 0 80 -35q68 -57 130 -92t128 -35q123 0 193.5 73.5t70.5 200.5q0 135 -70.5 205t-189.5 70t-182 -55q-39 -35 -84 -35q-55 0 -90 31.5t-27 101.5l70 588q6 47 32.5 71.5t83.5 24.5h463q53 0 86 -32t33 -85t-33 -86t-86 -33h-364l-33 -292 q61 37 180 36q98 0 180 -39.5t140.5 -109.5t91.5 -162t33 -199q0 -106 -40 -198t-110 -161t-163 -108.5t-197 -39.5q-129 0 -226.5 48t-185.5 142q-33 33 -33 82z" />
<glyph unicode="6" horiz-adv-x="1140" d="M59 489q0 80 33 167t82 161l428 633q16 27 41 39t49 12q53 0 88 -34.5t35 -84.5q0 -31 -22 -63l-232 -344q109 0 203 -33t164.5 -96.5t110.5 -153.5t40 -203q0 -106 -40 -198t-109.5 -161t-162.5 -107.5t-198 -38.5q-106 0 -199.5 38.5t-162 107.5t-108.5 161t-40 198z M295 489q0 -57 21.5 -107t58.5 -87t87 -58.5t107 -21.5t106.5 21.5t86.5 58.5t58.5 87t21.5 107t-21.5 107.5t-58.5 87.5t-86 58.5t-107 21.5q-57 0 -107 -21.5t-87 -58.5t-58.5 -87.5t-21.5 -107.5z" />
<glyph unicode="7" horiz-adv-x="866" d="M29 1374q0 53 32.5 85t85.5 32h568q59 0 86.5 -33t27.5 -80q0 -27 -10 -61l-395 -1233q-12 -39 -39 -66.5t-78 -27.5q-45 0 -81 28.5t-36 81.5q0 20 7 43l358 1112h-408q-53 0 -85.5 33t-32.5 86z" />
<glyph unicode="8" horiz-adv-x="1140" d="M59 489q0 74 19.5 139.5t51.5 118t74 93.5t87 65q-35 35 -64.5 87t-29.5 145q0 76 28.5 144.5t78.5 118.5t119 79.5t146 29.5q76 0 144.5 -29.5t120 -79.5t81 -119t29.5 -144q0 -92 -30.5 -144.5t-65.5 -85.5q102 -49 166.5 -156.5t64.5 -261.5q0 -106 -40 -198 t-109.5 -161t-162.5 -107.5t-198 -38.5q-106 0 -199.5 38.5t-162 107.5t-108.5 161t-40 198zM295 489q0 -57 21.5 -107t58.5 -87t87 -58.5t107 -21.5q55 0 105.5 21.5t87.5 58.5t58.5 87t21.5 107t-21.5 107.5t-58.5 87.5t-87 58.5t-106 21.5q-57 0 -107 -21.5t-87 -58.5 t-58.5 -87.5t-21.5 -107.5zM418 1130q0 -63 43 -107t108 -44q61 0 105.5 44t44.5 107t-44 107.5t-106 44.5q-66 0 -108.5 -44.5t-42.5 -107.5z" />
<glyph unicode="9" horiz-adv-x="1140" d="M59 1004q0 106 40 198t110 161t163 107.5t197 38.5q106 0 199.5 -38.5t162 -107.5t108.5 -161t40 -198q0 -80 -32.5 -167t-81.5 -161l-428 -635q-16 -27 -41 -39t-50 -12q-53 0 -87.5 34.5t-34.5 84.5q0 31 22 63l232 346q-109 0 -203 33t-165 96.5t-111 152.5t-40 204z M297 1004q0 -57 21.5 -107.5t58.5 -87.5t86 -58.5t106 -21.5t107.5 21.5t87.5 58.5t58.5 87.5t21.5 107.5t-21.5 107t-58.5 87t-87 58.5t-108 21.5q-57 0 -106 -21.5t-86 -58.5t-58.5 -87t-21.5 -107z" />
<glyph unicode=":" horiz-adv-x="436" d="M98 109v135q0 51 34 83.5t83 32.5q55 0 87 -32.5t32 -83.5v-135q0 -55 -32 -87t-87 -32q-49 0 -83 31.5t-34 87.5zM98 881v135q0 51 34 84t83 33q55 0 87 -33t32 -84v-135q0 -53 -32 -86t-87 -33q-49 0 -83 32.5t-34 86.5z" />
<glyph unicode=";" horiz-adv-x="473" d="M55 27q0 25 8 47l64 207q12 41 44 61t69 20q45 0 80.5 -29.5t35.5 -82.5v-21.5t-4 -19.5l-65 -201q-31 -96 -119 -96q-37 0 -75 30.5t-38 84.5zM123 881v135q0 51 31.5 84t87.5 33q51 0 83.5 -33t32.5 -84v-135q0 -53 -32.5 -86t-83.5 -33q-55 0 -87 32.5t-32 86.5z" />
<glyph unicode="&#x3c;" horiz-adv-x="1116" d="M100 793q0 29 18.5 56.5t49.5 39.5l711 260q19 6 39 6q47 0 71.5 -32.5t24.5 -71.5q0 -31 -15.5 -57.5t-48.5 -37.5l-463 -163l461 -164q33 -12 48.5 -40t15.5 -54q0 -39 -25.5 -72t-73.5 -33q-10 0 -20 2t-21 6l-702 258q-33 12 -51.5 35t-18.5 62z" />
<glyph unicode="=" horiz-adv-x="1075" d="M100 627q0 45 30 72.5t73 27.5h669q45 0 74 -27.5t29 -72.5q0 -47 -28.5 -75t-74.5 -28h-669q-43 0 -73 28t-30 75zM100 969q0 43 30 72.5t73 29.5h669q45 0 74 -29.5t29 -72.5q0 -47 -28.5 -75t-74.5 -28h-669q-43 0 -73 28t-30 75z" />
<glyph unicode="&#x3e;" horiz-adv-x="1116" d="M100 1051q0 39 25 71.5t72 32.5q20 0 39 -6l710 -260q31 -12 49.5 -40t18.5 -56q0 -39 -18.5 -61.5t-51.5 -35.5l-702 -258q-10 -4 -20.5 -6t-20.5 -2q-47 0 -73 33t-26 72q0 27 15.5 54t48.5 40l461 164l-463 163q-33 10 -48.5 37t-15.5 58z" />
<glyph unicode="?" horiz-adv-x="911" d="M49 1292q0 57 43 107q51 57 131 93t197 36q96 0 176 -26.5t136 -78t88 -123t32 -163.5q0 -111 -47 -201t-174 -170q-47 -29 -76 -52.5t-46 -45t-24.5 -45t-9.5 -52.5q-4 -53 -38 -80.5t-77 -27.5q-53 0 -85.5 34t-32.5 89q0 49 9 91t32.5 79t61.5 71.5t95 69.5 q45 29 80 52.5t56.5 48t33 54t11.5 68.5q0 82 -54.5 128t-132.5 46q-63 0 -104 -17t-74 -46q-49 -45 -109 -45q-39 0 -68.5 30.5t-29.5 75.5zM242 109v124q0 53 32.5 85t85.5 32q51 0 83 -31.5t32 -85.5v-124q0 -55 -27.5 -87t-87.5 -32q-53 0 -85.5 31.5t-32.5 87.5z" />
<glyph unicode="@" horiz-adv-x="1568" d="M61 506q0 166 51.5 309t146.5 248.5t233.5 165t310.5 59.5q141 0 269 -39t225.5 -116.5t153.5 -194.5t56 -270q0 -111 -33.5 -203t-91 -159.5t-131 -105.5t-153.5 -38q-41 0 -63.5 9t-33.5 36q-35 -16 -76.5 -27.5t-82.5 -11.5q-74 0 -136.5 26.5t-109.5 73.5 t-73.5 110.5t-26.5 135.5t26.5 134.5t73.5 109.5t109.5 73.5t136.5 26.5q43 0 82 -11t73 -32q27 43 82 43q41 0 69 -25.5t28 -70.5v-395q68 25 109.5 98.5t41.5 202.5q0 109 -40 187.5t-110.5 129.5t-167 75.5t-206.5 24.5q-123 0 -222.5 -44t-170 -120.5t-108.5 -183 t-38 -231.5t46 -231.5t126 -185.5t189.5 -123t238.5 -44q125 0 235.5 40t190.5 122q23 23 41.5 27t34.5 4q41 0 70.5 -29t29.5 -76q0 -23 -7 -38t-19 -31q-53 -61 -121 -104.5t-143.5 -71t-155.5 -40t-156 -12.5q-160 0 -305 56.5t-255.5 161t-176.5 251t-66 324.5zM676 514 q0 -68 48 -115t118 -47q68 0 116 47t48 115q0 66 -48.5 113t-115.5 47q-70 0 -118 -47t-48 -113z" />
<glyph unicode="A" horiz-adv-x="1206" d="M14 102q0 23 9 45l466 1278q27 76 111 76q39 0 68.5 -18.5t44.5 -57.5l467 -1273q4 -10 6 -20.5t2 -22.5q0 -53 -37 -86t-84 -33q-35 0 -63.5 17.5t-45.5 62.5l-114 321h-484l-114 -321q-16 -43 -44 -61.5t-69 -18.5t-80 28.5t-39 83.5zM438 600h328l-164 449z" />
<glyph unicode="B" horiz-adv-x="1032" d="M98 119v1255q0 53 34 85t83 32h332q92 0 166.5 -29.5t129 -80t84 -119t29.5 -144.5q0 -225 -168 -313q94 -41 156 -137.5t62 -218.5q0 -84 -31 -165t-91.5 -143.5t-148.5 -101.5t-203 -39h-317q-49 0 -83 31.5t-34 87.5zM334 236h198q51 0 94.5 19t75 51t50 73t18.5 84 t-16.5 84t-47 72.5t-74.5 50t-100 18.5h-198v-452zM334 924h213q82 0 127 47t45 121q0 72 -47 117.5t-125 45.5h-213v-331z" />
<glyph unicode="C" horiz-adv-x="1513" d="M59 745q0 162 61.5 304.5t167 249t248 168t304.5 61.5q172 0 322.5 -71t256.5 -189q12 -16 22.5 -32.5t10.5 -45.5q0 -55 -33 -87t-86 -32q-39 0 -57.5 13.5t-28.5 25.5q-78 86 -181 134t-226 48q-115 0 -214.5 -43t-173 -117.5t-115.5 -174t-42 -212.5t42 -211 t115.5 -171.5t173 -116.5t214.5 -43q123 0 224 44t179 130q16 20 38 33.5t50 13.5q53 0 87 -31t34 -80q0 -55 -37 -96q-109 -117 -255 -183.5t-320 -66.5q-162 0 -304.5 60.5t-248 166t-167 247t-61.5 304.5z" />
<glyph unicode="D" horiz-adv-x="1304" d="M98 119v1255q0 53 34 85t83 32h246q162 0 305 -55.5t249.5 -153.5t168 -235.5t61.5 -301.5t-61.5 -301t-168 -235t-249.5 -153.5t-305 -55.5h-246q-49 0 -83 31.5t-34 87.5zM334 236h127q113 0 213 37.5t175 105t118 161t43 205.5q0 111 -43 205t-118 162t-175.5 105.5 t-212.5 37.5h-127v-1019z" />
<glyph unicode="E" horiz-adv-x="960" d="M98 119v1255q0 53 34 85t83 32h586q51 0 82.5 -32t31.5 -85t-31.5 -86t-82.5 -33h-467v-344h448q53 0 86 -32.5t33 -83.5q0 -55 -32.5 -86t-86.5 -31h-448v-442h475q53 0 85 -32t32 -85q0 -55 -32 -87t-85 -32h-594q-49 0 -83 31.5t-34 87.5z" />
<glyph unicode="F" horiz-adv-x="940" d="M98 109v1265q0 53 31 85t88 32h584q51 0 82.5 -32t31.5 -85t-31.5 -86t-82.5 -33h-467v-344h448q53 0 86 -32.5t33 -83.5q0 -55 -32.5 -86t-86.5 -31h-448v-569q0 -55 -32 -87t-87 -32q-49 0 -83 31.5t-34 87.5z" />
<glyph unicode="G" horiz-adv-x="1683" d="M59 745q0 162 62.5 304.5t169 249t250 168t303.5 61.5q164 0 314.5 -61.5t254.5 -174.5q18 -20 27.5 -38.5t9.5 -45.5q0 -53 -30.5 -84.5t-84.5 -31.5q-25 0 -50 12t-48 37q-66 70 -169 110.5t-224 40.5q-113 0 -213.5 -43t-175 -117.5t-117.5 -174t-43 -212.5t42 -206 t115.5 -160.5t173 -105t214.5 -37.5q102 0 193 32.5t163 92t121 140.5t65 177h-538q-49 0 -83 27.5t-34 82.5q0 51 34 81t83 30h663q51 0 83 -27.5t32 -87.5q0 -166 -61.5 -308t-168 -248.5t-249 -167t-303.5 -60.5q-162 0 -304.5 55.5t-248 153.5t-167 235.5t-61.5 300.5z " />
<glyph unicode="H" horiz-adv-x="1185" d="M98 109v1275q0 53 34 85t83 32q55 0 87 -31.5t32 -85.5v-473h516v473q0 53 31.5 85t87.5 32q53 0 84.5 -31.5t31.5 -85.5v-1275q0 -55 -31.5 -87t-84.5 -32q-55 0 -87 31.5t-32 87.5v569h-516v-569q0 -55 -32 -87t-87 -32q-49 0 -83 31.5t-34 87.5z" />
<glyph unicode="I" horiz-adv-x="436" d="M98 109v1275q0 53 34 85t83 32q55 0 87 -31.5t32 -85.5v-1275q0 -55 -32 -87t-87 -32q-49 0 -83 31.5t-34 87.5z" />
<glyph unicode="J" horiz-adv-x="602" d="M20 109q0 53 33 84.5t86 31.5q55 0 92 34t37 93v1032q0 53 33 85t84 32q53 0 86 -31.5t33 -85.5v-1034q0 -84 -25.5 -150.5t-72 -113.5t-111 -71.5t-139.5 -24.5q-70 0 -103 31.5t-33 87.5z" />
<glyph unicode="K" horiz-adv-x="978" d="M98 109v1275q0 53 34 85t83 32q55 0 87 -31.5t32 -85.5v-473h96l295 529q18 35 46 48t56 13q47 0 84 -32.5t37 -84.5q0 -31 -18 -63l-303 -530l305 -625q16 -37 16 -64q0 -53 -35.5 -82.5t-83.5 -29.5q-31 0 -61.5 17.5t-46.5 51.5l-297 619h-90v-569q0 -55 -32 -87 t-87 -32q-49 0 -83 31.5t-34 87.5z" />
<glyph unicode="L" horiz-adv-x="942" d="M98 119v1265q0 53 34 85t83 32q55 0 87 -31.5t32 -85.5v-1148h475q53 0 85 -32t32 -85q0 -55 -32 -87t-85 -32h-592q-57 0 -88 31.5t-31 87.5z" />
<glyph unicode="M" horiz-adv-x="1374" d="M98 109v1275q0 59 36 88t79 29q29 0 63.5 -19.5t51.5 -62.5l356 -991l358 991q16 41 47 61.5t68 20.5q47 0 81 -28.5t34 -88.5v-1275q0 -55 -32 -87t-87 -32q-51 0 -84 31.5t-33 87.5v639l-241 -678q-16 -41 -46 -60.5t-65 -19.5q-84 0 -111 80l-239 675v-636 q0 -55 -32 -87t-87 -32q-49 0 -83 31.5t-34 87.5z" />
<glyph unicode="N" horiz-adv-x="1157" d="M98 109v1269q0 61 38 92t83 31q31 0 59.5 -13t45.5 -44l499 -893v833q0 53 32 85t87 32q51 0 84 -31.5t33 -85.5v-1284q0 -53 -36 -81.5t-79 -28.5q-35 0 -65.5 17.5t-51.5 53.5l-493 885v-837q0 -55 -32 -87t-87 -32q-49 0 -83 31.5t-34 87.5z" />
<glyph unicode="O" horiz-adv-x="1683" d="M59 745q0 162 61.5 304.5t167 249t248 168t304.5 61.5t304 -61.5t248.5 -168t168 -249t61.5 -304.5q0 -164 -61.5 -305t-168 -246.5t-249 -166t-303.5 -60.5q-162 0 -304.5 60.5t-248 166t-167 246.5t-61.5 305zM295 745q0 -113 42 -211t115.5 -171.5t173 -116.5 t214.5 -43q113 0 213 43t175 116.5t118 172t43 210.5q0 113 -43 212.5t-118 174t-175.5 117.5t-212.5 43q-115 0 -214.5 -43t-173 -117.5t-115.5 -174t-42 -212.5z" />
<glyph unicode="P" horiz-adv-x="1060" d="M98 109v1265q0 53 34 85t83 32h293q106 0 201.5 -35t165 -99.5t110.5 -156.5t41 -207t-41 -206t-110.5 -155.5t-165 -99t-201.5 -34.5h-174v-389q0 -55 -32 -87t-87 -32q-49 0 -83 31.5t-34 87.5zM334 733h174q57 0 109.5 17.5t90 51.5t60.5 82t23 109t-23 109.5 t-60.5 82.5t-90 52t-109.5 18h-174v-522z" />
<glyph unicode="Q" horiz-adv-x="1683" d="M59 745q0 162 61.5 305.5t168 249t248 167t301.5 61.5q162 0 305 -61.5t249.5 -167t168 -249t61.5 -305.5q0 -129 -43 -249.5t-115 -219.5l144 -147q23 -23 31 -45.5t8 -44.5q0 -47 -34 -82t-81 -35q-20 0 -39.5 6t-40.5 27l-156 158q-96 -76 -209.5 -111t-248.5 -35 q-160 0 -301.5 60.5t-248 166t-168 247t-61.5 304.5zM295 745q0 -113 43 -211t116.5 -171.5t172 -116.5t211.5 -43q115 0 215 43t175 116.5t118 172t43 210.5q0 113 -43 212.5t-118 174t-175 117.5t-215 43q-113 0 -211.5 -43t-172 -117.5t-116.5 -174t-43 -212.5z" />
<glyph unicode="R" horiz-adv-x="1038" d="M98 109v1265q0 53 34 85t83 32h317q102 0 189.5 -39t150 -103.5t98.5 -147.5t36 -171q0 -141 -79 -252.5t-229 -156.5l252 -451q18 -37 19 -68q0 -49 -36 -80.5t-81 -31.5q-33 0 -59.5 14t-47.5 51l-284 510h-127v-456q0 -55 -32 -87t-87 -32q-49 0 -83 31.5t-34 87.5z M334 801h198q49 0 93.5 19.5t76 51t50 72.5t18.5 86q0 43 -18.5 84t-50 72t-75.5 50t-94 19h-198v-454z" />
<glyph unicode="S" horiz-adv-x="956" d="M53 227q0 53 31 84t84 31q20 0 42.5 -9t45.5 -32q41 -41 86 -58.5t111 -17.5q109 0 168 66.5t59 171.5q0 66 -26.5 109.5t-96.5 78.5q-59 31 -137 58.5t-152 70.5q-72 43 -123 128t-51 202q0 88 31 164t86 131t131 87t166 32q76 0 160 -35t137 -86q29 -27 38 -50.5 t9 -49.5q0 -53 -28.5 -86t-78.5 -33q-33 0 -55 11t-45 32q-37 35 -71.5 48t-81.5 13q-61 0 -111.5 -47t-50.5 -131q0 -61 32.5 -97t102.5 -71t148.5 -61.5t131.5 -65.5q82 -61 126 -153.5t44 -198.5q0 -92 -31.5 -178t-94 -151.5t-153.5 -104.5t-208 -39q-106 0 -191 43 t-139 96q-23 23 -34 49.5t-11 48.5z" />
<glyph unicode="T" horiz-adv-x="987" d="M14 1374q0 53 33 85t86 32h719q51 0 84 -32t33 -85t-33 -86t-84 -33h-242v-1146q0 -55 -32.5 -87t-85.5 -32q-51 0 -83 31.5t-32 87.5v1146h-244q-53 0 -86 33t-33 86z" />
<glyph unicode="U" horiz-adv-x="1189" d="M98 500v884q0 53 34 85t83 32q55 0 87 -31.5t32 -85.5v-884q0 -59 18.5 -111.5t52 -91.5t82 -60.5t109.5 -21.5t109.5 21.5t82 60.5t51 91t17.5 112v884q0 53 32 85t87 32q53 0 85 -31.5t32 -85.5v-884q0 -109 -34 -204t-98.5 -165t-156.5 -109.5t-207 -39.5t-207 39.5 t-156.5 109.5t-99.5 165t-35 204z" />
<glyph unicode="V" horiz-adv-x="1206" d="M14 1380q0 55 40 88t83 33q35 0 62.5 -18.5t44.5 -61.5l358 -983l354 983q29 80 113 80q45 0 82 -28.5t37 -86.5q0 -25 -6 -45l-467 -1273q-29 -78 -113 -78q-35 0 -64.5 19.5t-43.5 58.5l-469 1269q-10 25 -11 43z" />
<glyph unicode="W" horiz-adv-x="1890" d="M14 1389q0 53 39 82.5t80 29.5q33 0 64.5 -18.5t46.5 -63.5l293 -932l294 930q12 41 42 62.5t69 21.5q35 0 67.5 -18.5t47.5 -63.5l291 -932l292 932q14 43 46 62.5t67 19.5q47 0 84 -28.5t37 -83.5q0 -10 -2 -20.5t-6 -20.5l-404 -1276q-12 -41 -46 -61.5t-70 -20.5 q-37 0 -69 20.5t-44 61.5l-291 929l-291 -929q-12 -39 -44 -60.5t-72 -21.5q-35 0 -67 19.5t-46 62.5l-402 1282q-6 14 -6 35z" />
<glyph unicode="X" horiz-adv-x="1021" d="M14 106q0 31 17 62l348 608l-307 551q-16 29 -17 57q0 53 36 85t83 32q27 0 54.5 -12t43.5 -41l238 -442l244 442q16 29 40.5 41t51.5 12q45 0 82 -29.5t37 -82.5q0 -14 -3.5 -30t-13.5 -32l-309 -545l352 -614q10 -16 12.5 -30.5t2.5 -31.5q0 -51 -38 -83.5t-83 -32.5 q-29 0 -55.5 14t-45.5 49l-274 506l-274 -506q-35 -63 -101 -63q-45 0 -83 32.5t-38 83.5z" />
<glyph unicode="Y" horiz-adv-x="929" d="M10 1389q0 53 38 82.5t79 29.5q29 0 55.5 -12t42.5 -41l236 -442l244 442q16 29 41.5 41t54.5 12q43 0 81 -29.5t38 -82.5q0 -14 -3.5 -30t-13.5 -32l-317 -569v-649q0 -55 -33 -87t-86 -32q-55 0 -88 31.5t-33 87.5v649l-319 569q-8 16 -12.5 28.5t-4.5 33.5z" />
<glyph unicode="Z" horiz-adv-x="1015" d="M33 111q0 14 4 31.5t16 37.5l613 1075h-490q-53 0 -85 33t-32 86t32 85t85 32h686q47 0 82 -33t35 -86q0 -41 -27 -88l-596 -1048h494q53 0 84 -32t31 -85q0 -55 -31 -87t-84 -32h-698q-47 0 -83 29.5t-36 81.5z" />
<glyph unicode="[" horiz-adv-x="677" d="M100 -82v1673q0 47 30 75t73 28h262q45 0 73.5 -28t28.5 -75q0 -45 -28.5 -72.5t-73.5 -27.5h-160v-1468h168q47 0 76 -29t29 -76t-29 -74.5t-76 -27.5h-270q-43 0 -73 27.5t-30 74.5z" />
<glyph unicode="\" horiz-adv-x="821" d="M98 1390.5v16.5q0 45 31 69.5t70 24.5q31 0 58.5 -16.5t39.5 -54.5l416 -1303q6 -16 6 -35q0 -47 -33 -74.5t-72 -27.5q-33 0 -59.5 19.5t-40.5 62.5l-412 1300q-4 10 -4 18.5z" />
<glyph unicode="]" horiz-adv-x="677" d="M100 -82q0 47 30 76t73 29h170v1468h-160q-47 0 -75.5 27.5t-28.5 72.5q0 47 28.5 75t75.5 28h260q47 0 76 -28t29 -75v-1673q0 -47 -29 -74.5t-76 -27.5h-270q-43 0 -73 27.5t-30 74.5z" />
<glyph unicode="^" horiz-adv-x="931" d="M100 764q0 16 11 47l262 705q25 66 94 65q45 0 63.5 -17.5t30.5 -47.5l262 -711q6 -23 6 -39q0 -47 -32.5 -73.5t-69.5 -26.5q-29 0 -56.5 16t-39.5 51l-164 443l-164 -441q-12 -35 -38.5 -52t-59.5 -17q-39 0 -72 25.5t-33 72.5z" />
<glyph unicode="_" horiz-adv-x="983" d="M6 -125q0 47 28.5 74.5t71.5 27.5h768q47 0 75 -27.5t28 -74.5t-27.5 -74.5t-75.5 -27.5h-768q-43 0 -71.5 27.5t-28.5 74.5z" />
<glyph unicode="`" horiz-adv-x="821" d="M41 1421q0 43 24.5 69t65.5 26q18 0 45 -9l389 -123q35 -10 51.5 -36.5t16.5 -51.5q0 -37 -22.5 -66.5t-59.5 -29.5q-23 0 -47 8l-398 125q-35 10 -50 35t-15 53z" />
<glyph unicode="a" d="M59 565q0 125 45.5 234.5t126 191.5t191 130t240.5 48q115 0 202.5 -38.5t147.5 -104.5q0 53 33.5 85t82.5 32q55 0 87 -32t32 -85v-917q0 -55 -31.5 -87t-87.5 -32q-49 0 -82.5 31.5t-33.5 87.5v6q-29 -29 -67 -56.5t-84 -48t-97 -33t-102 -12.5q-131 0 -242 47 t-190.5 128t-125 190.5t-45.5 234.5zM295 565q0 -76 28.5 -142.5t78 -115.5t116 -77.5t144.5 -28.5q74 0 138 28.5t110 77.5t73 115.5t27 142.5t-27 143.5t-73 118t-110 79t-138 28.5q-78 0 -144.5 -28.5t-116 -79t-78 -118t-28.5 -143.5z" />
<glyph unicode="b" d="M98 94v1385q0 53 34 84.5t85 31.5q55 0 87 -31.5t32 -84.5v-457q55 68 143 107.5t205 39.5t226.5 -45t193.5 -125.5t134 -191.5t50 -242q0 -129 -50 -239.5t-134 -190.5t-193.5 -125t-226.5 -45q-55 0 -107.5 13.5t-98.5 35t-85 50t-65 59.5q-6 -59 -32 -96t-97 -37 q-43 0 -72 28.5t-29 75.5zM336 565q0 -76 26.5 -142.5t73.5 -115.5t110.5 -77.5t137.5 -28.5q76 0 143.5 28.5t116.5 77.5t78 115.5t29 142.5t-29 143.5t-78 118t-116.5 79t-143.5 28.5q-74 0 -137.5 -28.5t-110.5 -79t-73.5 -118t-26.5 -143.5z" />
<glyph unicode="c" horiz-adv-x="1189" d="M59 565q0 125 47.5 234.5t129 191.5t191.5 130t235 48q129 0 244.5 -48t191.5 -140q14 -18 20 -38.5t6 -37.5q0 -49 -36.5 -86t-83.5 -37q-43 0 -78 35q-53 53 -121 85t-143 32q-78 0 -144.5 -28.5t-116 -79t-78 -118t-28.5 -143.5t28.5 -142.5t78 -115.5t116 -77.5 t144.5 -28.5q76 0 143 27.5t117 80.5q20 20 39.5 27.5t42.5 7.5q47 0 85.5 -35t38.5 -84q0 -41 -36 -82q-84 -86 -196 -132t-234 -46q-125 0 -235 47t-191.5 128t-129 190.5t-47.5 234.5z" />
<glyph unicode="d" d="M59 565q0 125 50.5 234.5t133.5 191.5t192.5 130t226.5 48t204.5 -39.5t143.5 -107.5v457q0 53 31.5 84.5t86.5 31.5q53 0 86 -31.5t33 -84.5v-1385q0 -47 -27.5 -75.5t-70.5 -28.5q-51 0 -87 30.5t-44 102.5q-27 -31 -66 -59.5t-86 -50t-99 -35t-105 -13.5 q-117 0 -226.5 47t-192.5 128t-133.5 190.5t-50.5 234.5zM295 565q0 -76 28.5 -142.5t78 -115.5t116 -77.5t144.5 -28.5q74 0 138 28.5t110 77.5t73 115.5t27 142.5t-27 143.5t-73 118t-110 79t-138 28.5q-78 0 -144.5 -28.5t-116 -79t-78 -118t-28.5 -143.5z" />
<glyph unicode="e" horiz-adv-x="1323" d="M59 565q0 125 47.5 234.5t129 191.5t191.5 130t235 48q123 0 232.5 -47t191 -125.5t130 -184t48.5 -222.5q0 -59 -31 -90t-86 -31h-832q10 -57 43 -106.5t81 -85t105.5 -56t117.5 -20.5q76 0 139 26.5t112 75.5q20 18 45 29.5t48 11.5q47 0 78.5 -35t31.5 -82 q0 -25 -6 -47t-25 -41q-80 -88 -188.5 -131t-234.5 -43q-125 0 -235 47t-191.5 128t-129 190.5t-47.5 234.5zM317 664h689q-10 57 -43 106t-80 86t-104.5 57.5t-116.5 20.5t-117 -20.5t-104 -57.5t-78.5 -86t-45.5 -106z" />
<glyph unicode="f" horiz-adv-x="593" d="M10 1016q0 45 25.5 76.5t73.5 37.5v105q0 94 25.5 162.5t71.5 112.5t107.5 64.5t132.5 20.5q68 0 103 -29.5t35 -78.5q0 -53 -26 -85t-73 -36q-29 -2 -53 -8t-44.5 -20.5t-32 -39t-11.5 -65.5v-100h74q53 0 85 -34t32 -83q0 -55 -32 -87t-85 -32h-74v-788 q0 -55 -31.5 -87t-87.5 -32q-49 0 -82.5 31.5t-33.5 87.5v788q-47 6 -73 37t-26 82z" />
<glyph unicode="g" d="M59 567q0 125 50.5 234.5t133.5 191.5t192.5 129t226.5 47q55 0 107 -13t98 -35.5t85 -51.5t68 -59q4 68 32.5 100.5t94.5 32.5q43 0 71.5 -28t28.5 -75v-964q0 -113 -33.5 -220.5t-107.5 -192.5t-187.5 -136t-273.5 -51q-63 0 -95 31.5t-32 86.5q0 53 32 86t87 33 q106 0 178 32t115 85t60.5 126t17.5 155q-53 -70 -139.5 -108t-206.5 -38q-117 0 -226.5 47t-192.5 129t-133.5 191.5t-50.5 234.5zM295 567q0 -76 28.5 -142.5t78 -116.5t116 -78.5t144.5 -28.5q74 0 138 28.5t110 78.5t73 117t27 142q0 76 -27 142.5t-73 117t-110.5 79 t-137.5 28.5q-78 0 -144.5 -28.5t-116 -79t-78 -117t-28.5 -142.5z" />
<glyph unicode="h" horiz-adv-x="1210" d="M98 109v1370q0 53 34 84.5t83 31.5q55 0 87 -31.5t32 -84.5v-426q51 53 124.5 84.5t164.5 31.5q111 0 200.5 -39.5t153 -109.5t97.5 -165t34 -206v-540q0 -55 -32 -87t-85 -32q-51 0 -84 31.5t-33 87.5v540q0 61 -17 113.5t-51 90.5t-83 60.5t-113 22.5 q-61 0 -112.5 -22.5t-88 -60.5t-56 -90t-19.5 -114v-540q0 -55 -32 -87t-87 -32q-49 0 -83 31.5t-34 87.5z" />
<glyph unicode="i" horiz-adv-x="436" d="M98 109v876q0 51 34 84t83 33q55 0 87 -33t32 -84v-876q0 -55 -32 -87t-87 -32q-49 0 -83 31.5t-34 87.5zM98 1315v164q0 53 34 84.5t83 31.5q55 0 87 -31.5t32 -84.5v-164q0 -53 -32 -85t-87 -32q-49 0 -83 32t-34 85z" />
<glyph unicode="j" horiz-adv-x="405" d="M-168 -416q0 53 25.5 85t72.5 36q27 2 52.5 8t46 20.5t32 39t11.5 65.5v1145q0 55 31.5 87t86.5 32q49 0 83 -32t34 -87v-1147q0 -94 -25.5 -162.5t-71.5 -112.5t-107.5 -64.5t-133.5 -20.5q-68 0 -102.5 29.5t-34.5 78.5zM72 1315v164q0 53 32.5 84.5t83.5 31.5 q55 0 87 -31.5t32 -84.5v-164q0 -53 -31.5 -85t-87.5 -32q-51 0 -83.5 32t-32.5 85z" />
<glyph unicode="k" horiz-adv-x="874" d="M98 109v1370q0 53 34 84.5t83 31.5q55 0 87 -31.5t32 -84.5v-764h88l192 362q18 35 47 50.5t60 15.5q45 0 83 -32t38 -81q0 -33 -19 -65l-211 -365l219 -430q14 -31 15 -64q0 -53 -37 -84.5t-82 -31.5q-33 0 -60.5 16.5t-43.5 52.5l-209 441h-80v-391q0 -55 -32 -87 t-87 -32q-49 0 -83 31.5t-34 87.5z" />
<glyph unicode="l" horiz-adv-x="436" d="M98 109v1370q0 53 34 84.5t83 31.5q55 0 87 -31.5t32 -84.5v-1370q0 -55 -32 -87t-87 -32q-49 0 -83 31.5t-34 87.5z" />
<glyph unicode="m" horiz-adv-x="1841" d="M98 106v934q0 47 27 75t72 28q100 0 116 -94q47 63 118 91.5t144 28.5q49 0 100.5 -10t97.5 -30.5t86 -54.5t67 -79q59 92 157.5 133t196.5 41q88 0 171 -35.5t146.5 -98t102.5 -149.5t39 -190v-590q0 -55 -32 -85.5t-85 -30.5q-51 0 -84 30.5t-33 85.5v590 q0 51 -18.5 94.5t-50 76t-72.5 51t-84 18.5q-45 0 -88 -18.5t-78 -51t-56.5 -75.5t-21.5 -95v-590q0 -55 -31.5 -85.5t-86.5 -30.5q-49 0 -82 30.5t-33 85.5v590q0 51 -19.5 94.5t-51.5 76t-73 51t-84 18.5t-87 -18.5t-77.5 -51t-55 -75.5t-21.5 -95v-590q0 -55 -32 -85.5 t-87 -30.5q-49 0 -83 30.5t-34 85.5z" />
<glyph unicode="n" horiz-adv-x="1210" d="M98 106v934q0 47 30 75t71 28q100 0 118 -103q53 59 131 94t175 35q111 0 200.5 -39.5t153 -109.5t97.5 -165t34 -206v-543q0 -55 -32 -85.5t-85 -30.5q-51 0 -84 30.5t-33 85.5v543q0 59 -18 111.5t-52 91.5t-83 61.5t-111 22.5q-61 0 -112.5 -22.5t-88 -60.5t-56 -90 t-19.5 -114v-543q0 -55 -32 -85.5t-87 -30.5q-49 0 -83 30.5t-34 85.5z" />
<glyph unicode="o" horiz-adv-x="1323" d="M59 565q0 125 47.5 234.5t129 191.5t191.5 130t235 48t234.5 -48t191 -130t129 -191.5t47.5 -234.5t-47.5 -234.5t-129 -190.5t-191.5 -128t-234 -47q-125 0 -235 47t-191.5 128t-129 190.5t-47.5 234.5zM295 565q0 -76 28.5 -142.5t78 -115.5t116 -77.5t144.5 -28.5 q76 0 142 28.5t116.5 77.5t79 115.5t28.5 142.5t-28.5 143.5t-79 118t-116.5 79t-142 28.5q-78 0 -144.5 -28.5t-116 -79t-78 -118t-28.5 -143.5z" />
<glyph unicode="p" d="M98 -408v1448q0 47 30 75t71 28q63 0 88.5 -34t40.5 -99q27 31 65.5 59.5t84.5 51t98.5 35.5t107.5 13q117 0 226.5 -47t193.5 -129t134 -191.5t50 -234.5t-50 -234.5t-134 -191.5t-193.5 -129t-226.5 -47t-205 40t-143 106v-519q0 -53 -32 -84.5t-87 -31.5 q-51 0 -85 31.5t-34 84.5zM336 567q0 -76 26.5 -142.5t73.5 -116.5t110.5 -78.5t137.5 -28.5q76 0 143.5 28.5t116.5 78.5t78 117t29 142q0 76 -29 142.5t-78 117t-116.5 79t-143.5 28.5q-74 0 -137.5 -28.5t-110.5 -79t-73.5 -117t-26.5 -142.5z" />
<glyph unicode="q" d="M57 567q0 125 50.5 234.5t134.5 191.5t193.5 129t226.5 47q55 0 107 -13t98 -35.5t85 -51.5t66 -59q14 66 39.5 99.5t89.5 33.5q41 0 70.5 -28t29.5 -75v-1448q0 -53 -33.5 -84.5t-85.5 -31.5q-55 0 -86.5 31.5t-31.5 84.5v519q-55 -66 -143.5 -106t-204.5 -40 q-117 0 -226.5 47t-193.5 129t-134.5 191.5t-50.5 234.5zM295 567q0 -76 28.5 -142.5t78 -116.5t116 -78.5t144.5 -28.5q74 0 137 28.5t110 78.5t74 117t27 142q0 76 -27 142.5t-74 117t-110.5 79t-136.5 28.5q-78 0 -144.5 -28.5t-116 -79t-78 -117t-28.5 -142.5z" />
<glyph unicode="r" horiz-adv-x="739" d="M98 100v914q0 53 25.5 91t91.5 38q51 0 75.5 -32t28.5 -87q59 66 129 94.5t162 28.5q51 0 85 -27.5t34 -89.5q0 -49 -24.5 -78.5t-77.5 -33.5q-88 -6 -145.5 -27t-90.5 -56.5t-45 -86t-12 -111.5v-539q0 -45 -32 -76.5t-85 -31.5t-86 31.5t-33 78.5z" />
<glyph unicode="s" horiz-adv-x="770" d="M51 184q0 41 30 77t73 36q37 0 77 -25q31 -18 66 -30.5t78 -12.5q61 0 90 32t29 79q0 45 -15.5 68.5t-38.5 40.5q-47 35 -103 53t-110 49q-72 41 -112.5 104.5t-40.5 163.5q0 74 24.5 134.5t68.5 103.5t103.5 66.5t130.5 23.5q72 0 141.5 -26.5t106.5 -80.5 q25 -35 25 -88q0 -43 -25.5 -74.5t-79.5 -31.5q-20 0 -43.5 9t-36.5 26q-35 45 -100 45q-33 0 -58.5 -24.5t-25.5 -72.5q0 -43 19.5 -66t91.5 -52q78 -31 132 -62t91 -65q47 -47 67.5 -107.5t20.5 -148.5q0 -66 -24.5 -127.5t-70.5 -109.5t-110.5 -77.5t-146.5 -29.5 q-72 0 -140.5 23.5t-115.5 60.5q-29 23 -48.5 51t-19.5 65z" />
<glyph unicode="t" horiz-adv-x="610" d="M10 1014q0 49 25.5 80.5t73.5 35.5v347q0 55 33.5 86.5t82.5 31.5q55 0 87 -31.5t32 -86.5v-344h74q53 0 85 -32t32 -87q0 -49 -32 -83t-85 -34h-74v-545q0 -41 11.5 -65.5t32 -39t45 -20.5t52.5 -8q47 -4 73 -35.5t26 -85.5q0 -49 -35 -78.5t-103 -29.5q-72 0 -133 20.5 t-107 64.5t-71.5 112.5t-25.5 162.5v547q-47 6 -73 39t-26 78z" />
<glyph unicode="u" horiz-adv-x="1169" d="M98 463v563q0 55 32 86t85 31q51 0 84 -31t33 -86v-563q0 -121 64.5 -193.5t189.5 -72.5t186.5 71.5t61.5 194.5v563q0 55 31.5 86t86.5 31q49 0 83 -31t34 -86v-934q0 -47 -29.5 -74.5t-70.5 -27.5q-100 0 -119 102q-41 -59 -110.5 -94t-166.5 -35q-111 0 -198.5 37 t-149 102.5t-94.5 157.5t-33 203z" />
<glyph unicode="v" horiz-adv-x="937" d="M14 1024q0 53 38 86t83 33t69.5 -19.5t41.5 -60.5l225 -625l221 625q27 80 111 80q45 0 82 -33t37 -86q0 -25 -9 -49l-333 -903q-14 -39 -44 -60.5t-65 -21.5t-64.5 20.5t-46.5 61.5l-333 899q-12 27 -13 53z" />
<glyph unicode="w" horiz-adv-x="1427" d="M14 1026q0 53 37 85t82 32q41 0 69.5 -21.5t41.5 -62.5l178 -578l178 580q12 41 43 61.5t72 20.5t70.5 -20.5t41.5 -61.5l177 -580l180 578q12 41 41.5 62.5t70.5 21.5q45 0 81 -31t36 -86q0 -23 -8 -47l-289 -909q-12 -41 -44 -60.5t-68 -19.5q-37 0 -69 19.5t-44 60.5 l-176 573l-178 -573q-12 -41 -44 -60.5t-71 -19.5t-69.5 19.5t-43.5 60.5l-286 907q-4 12 -6.5 25.5t-2.5 23.5z" />
<glyph unicode="x" horiz-adv-x="903" d="M14 104q0 37 23 74l280 420l-237 348q-14 20 -19.5 41t-5.5 39q0 49 34 83t81 34q25 0 52.5 -13.5t47.5 -44.5l181 -290l180 288q20 31 46.5 45.5t53.5 14.5q47 0 81 -34t34 -83q0 -18 -5 -38.5t-20 -41.5l-235 -350l274 -412q14 -20 19.5 -38.5t5.5 -41.5 q0 -49 -34 -81.5t-81 -32.5q-39 0 -61.5 14t-44.5 49l-215 346l-211 -346q-23 -35 -50.5 -49t-58.5 -14q-45 0 -80 32.5t-35 81.5z" />
<glyph unicode="y" horiz-adv-x="937" d="M14 1024q0 53 36 86t85 33q37 0 66.5 -19.5t44.5 -60.5l225 -641l221 641q14 41 44 60.5t67 19.5q49 0 84 -33t35 -86q0 -27 -9 -49l-524 -1417q-16 -43 -46 -62.5t-64 -19.5q-45 0 -82 32.5t-37 83.5q0 20 8 43l176 461l-319 877q-4 14 -7.5 25.5t-3.5 25.5z" />
<glyph unicode="z" horiz-adv-x="823" d="M33 117q0 41 26 84l394 694h-283q-55 0 -87 33t-32 86q0 51 32 85t87 34h467q59 0 94 -36t35 -89q0 -23 -7 -43.5t-18 -38.5l-391 -690h297q53 0 86 -32t33 -85q0 -55 -33 -87t-86 -32h-485q-63 0 -96 33t-33 84z" />
<glyph unicode="{" horiz-adv-x="634" d="M100 754q0 20 8.5 33.5t20.5 24.5t24.5 19.5t20.5 16.5q29 29 37 95.5t8 203.5q0 94 7 182t28.5 155.5t63.5 107.5t114 40q47 0 73.5 -27.5t26.5 -74.5q0 -43 -21.5 -62.5t-64.5 -29.5q-23 -4 -28.5 -125t-5.5 -363q0 -59 -18.5 -108t-76.5 -88q57 -39 76 -87.5 t19 -109.5q0 -240 6 -362.5t28 -126.5q43 -10 64.5 -27.5t21.5 -65.5q0 -47 -26.5 -74.5t-73.5 -27.5q-72 0 -114 40t-63.5 107.5t-28.5 155.5t-7 184q0 129 -7 200t-36 99q-10 8 -23.5 17.5t-24.5 20t-19.5 23.5t-8.5 34z" />
<glyph unicode="|" horiz-adv-x="530" d="M164 -131v1704q0 47 27.5 73.5t72.5 26.5q47 0 75 -26.5t28 -73.5v-1704q0 -45 -28 -72.5t-75 -27.5q-45 0 -72.5 27.5t-27.5 72.5z" />
<glyph unicode="}" horiz-adv-x="634" d="M100 -25q0 47 22.5 64.5t63.5 28.5q23 4 30 126.5t7 362.5q0 61 18.5 109.5t75.5 87.5q-57 39 -75.5 88t-18.5 108q0 242 -7 363t-30 125q-41 10 -63.5 29.5t-22.5 62.5q0 47 28 74.5t75 27.5q70 0 112.5 -40t64 -107.5t29 -155.5t7.5 -182q0 -137 7 -205t36 -94 q18 -16 45.5 -35.5t27.5 -58.5q0 -20 -8 -33.5t-19 -24t-24.5 -19.5t-21.5 -18q-29 -29 -36 -99.5t-7 -199.5q0 -96 -7.5 -184t-29 -155.5t-64 -107.5t-112.5 -40q-47 0 -75 27.5t-28 74.5z" />
<glyph unicode="~" horiz-adv-x="956" d="M100 739q0 29 6.5 47.5t22.5 47.5q29 51 81 89t126 38q57 0 98 -19.5t76 -44.5q43 -31 62.5 -42t45.5 -11q20 0 35 14t31 45q10 20 27.5 32.5t46.5 12.5q41 0 68.5 -23.5t27.5 -64.5q0 -29 -6 -47t-23 -47q-29 -51 -81 -89t-126 -38q-57 0 -98 20.5t-76 45.5 q-45 31 -63.5 41t-44.5 10q-20 0 -34.5 -14.5t-31.5 -45.5q-10 -20 -27.5 -32.5t-45.5 -12.5q-41 0 -69 23.5t-28 64.5z" />
<glyph unicode="&#xa1;" horiz-adv-x="436" d="M98 -242v789q0 53 33 85t86 32q51 0 84 -32t33 -85v-789q0 -53 -33 -84.5t-84 -31.5q-53 0 -86 31.5t-33 84.5zM98 899v98q0 61 29 100.5t90 39.5q51 0 84 -32t33 -85v-121q0 -53 -33 -86t-84 -33q-53 0 -86 33t-33 86z" />
<glyph unicode="&#xa2;" horiz-adv-x="1224" d="M61 741q0 109 38 207.5t104.5 176t157 132t194.5 74.5v70q0 47 26.5 73.5t73.5 26.5t75 -26.5t28 -73.5v-70q98 -16 182 -62t150 -114q10 -10 22 -32.5t12 -41.5q0 -45 -28.5 -72.5t-75.5 -27.5q-18 0 -41 9t-35 26q-55 55 -129 87t-156 32t-153.5 -31t-124.5 -84 t-84 -125t-31 -154t31 -153.5t84 -124.5t125 -84t153 -31q82 0 154 33t127 86q33 33 70 33q43 0 74.5 -32t31.5 -73q0 -43 -33 -73q-66 -66 -146.5 -111t-178.5 -59v-58q0 -47 -28 -75.5t-75 -28.5t-73.5 28.5t-26.5 75.5v58q-102 20 -191.5 74.5t-157 132t-106.5 176 t-39 206.5z" />
<glyph unicode="&#xa3;" horiz-adv-x="1183" d="M51 94q0 37 18.5 66.5t49.5 50.5q47 31 90 82t74.5 113.5t51 132t19.5 139.5h-92q-47 0 -77.5 32t-30.5 85t27.5 84.5t80.5 31.5h51q-10 47 -21 96.5t-11 102.5q0 199 105.5 303.5t277.5 104.5q125 0 216 -57.5t134 -133.5q23 -39 22 -90q0 -51 -30.5 -84t-83.5 -33 q-29 0 -56.5 16.5t-44.5 51.5q-23 41 -63.5 66.5t-93.5 25.5q-61 0 -104.5 -43t-43.5 -141q0 -39 9.5 -82t25.5 -103h280q47 0 79 -30.5t32 -81.5t-31.5 -86t-79.5 -35h-241q0 -72 -10.5 -132.5t-30 -111.5t-45 -96t-55.5 -88q102 0 194 -15.5t184 -15.5q39 0 66 4t47.5 8.5 t37.5 8.5t36 4q57 0 91 -30t34 -81q0 -47 -29 -77.5t-72 -47.5q-27 -10 -72.5 -14t-123.5 -4q-109 0 -216.5 13t-224.5 13q-78 0 -136 -16t-99 -16q-61 0 -88 34.5t-27 75.5z" />
<glyph unicode="&#xa4;" horiz-adv-x="1409" d="M63 227q0 45 37 82l105 107q-47 72 -74 155.5t-27 176.5q0 92 27 176t74 153l-107 111q-35 35 -35 82q0 20 9.5 40.5t25 38t36 29t44.5 11.5q20 0 43 -9.5t41 -27.5l105 -107q72 51 158.5 78t183.5 27q92 0 176 -27t155 -74l107 107q37 37 86 37q45 0 81 -36t36 -81 q0 -51 -37 -86l-109 -107q51 -72 78 -156.5t27 -178.5q0 -96 -28 -181.5t-77 -156.5l107 -107q37 -37 37 -80q0 -45 -38 -83t-83 -38t-82 37l-107 105q-72 -47 -154.5 -73t-174.5 -26q-96 0 -182.5 27t-157.5 76l-103 -105q-16 -16 -38.5 -25t-45.5 -9q-45 0 -82 35.5 t-37 82.5zM328 748q0 -78 29.5 -148t82 -121t121 -80.5t148.5 -29.5q78 0 146.5 29.5t119.5 80.5t80.5 121t29.5 148q0 80 -29.5 148.5t-80.5 119.5t-119.5 80.5t-146.5 29.5q-80 0 -148.5 -29.5t-121 -80.5t-82 -120t-29.5 -148z" />
<glyph unicode="&#xa5;" horiz-adv-x="942" d="M14 1389q0 53 39 82.5t80 29.5q29 0 54.5 -12t41.5 -41l240 -444l242 444q16 29 42.5 41t53.5 12q43 0 81 -29.5t38 -82.5q0 -14 -3 -30t-14 -32l-317 -569v-201h162q53 0 84.5 -31.5t31.5 -87.5q0 -53 -31.5 -84.5t-84.5 -31.5h-162v-213q0 -55 -33 -87t-86 -32 q-55 0 -87 31.5t-32 87.5v213h-164q-53 0 -84.5 31.5t-31.5 84.5q0 55 31.5 87t84.5 32h164v201l-323 569q-16 27 -17 62z" />
<glyph unicode="&#xa6;" horiz-adv-x="530" d="M164 -131v641q0 45 27.5 73.5t72.5 28.5q47 0 75 -28.5t28 -73.5v-641q0 -45 -28 -72.5t-75 -27.5q-45 0 -72.5 27.5t-27.5 72.5zM164 934v639q0 47 27.5 73.5t72.5 26.5q47 0 75 -26.5t28 -73.5v-639q0 -47 -28 -75t-75 -28q-45 0 -72.5 28t-27.5 75z" />
<glyph unicode="&#xa7;" horiz-adv-x="985" d="M53 -297q0 49 30 79t79 30q20 0 41.5 -8.5t42.5 -30.5q39 -39 83 -55.5t105 -16.5q113 0 165 63.5t52 163.5q0 61 -25.5 103.5t-90.5 77.5q-59 29 -132 55t-145 67q-70 41 -118 122t-48 192q0 104 37 186t102 133q-47 47 -74.5 113.5t-27.5 150.5q0 86 29.5 158t83 125 t125 83t157.5 30q37 0 76 -9.5t77 -24.5t71.5 -35.5t58.5 -45.5q29 -27 37 -49.5t8 -46.5q0 -51 -26.5 -83t-73.5 -32q-31 0 -53.5 11.5t-43.5 31.5q-35 33 -67.5 45t-79.5 12q-59 0 -106.5 -45t-47.5 -125q0 -59 32 -91.5t97 -67.5q66 -35 138.5 -62.5t126.5 -60.5 q41 -25 72.5 -54.5t52 -68.5t30.5 -91t10 -122q0 -92 -31.5 -174t-93.5 -146q88 -113 89 -262q0 -90 -31 -171t-90.5 -144.5t-145.5 -100t-198 -36.5q-102 0 -185.5 41t-134.5 90q-23 23 -31 43t-8 53zM317 586q0 -45 8.5 -76t24 -52.5t39.5 -39t57 -33.5q39 -20 83 -36.5 t85 -33.5q39 27 56.5 72t17.5 123q0 61 -25.5 103t-91.5 77q-29 16 -63.5 28.5t-69.5 29.5q-49 -12 -85 -54.5t-36 -107.5z" />
<glyph unicode="&#xa8;" horiz-adv-x="647" d="M70 1339v72q0 43 26.5 68.5t67.5 25.5t66.5 -25.5t25.5 -68.5v-72q0 -41 -25.5 -65.5t-66.5 -24.5t-67.5 24.5t-26.5 65.5zM385 1339v72q0 43 26.5 68.5t67.5 25.5q43 0 68.5 -25.5t25.5 -68.5v-72q0 -41 -25.5 -65.5t-68.5 -24.5q-41 0 -67.5 24.5t-26.5 65.5z" />
<glyph unicode="&#xaa;" horiz-adv-x="927" d="M100 1174q0 76 29 142t75 116.5t106.5 79t123.5 28.5q78 0 125 -23.5t82 -58.5q10 35 32.5 52.5t51.5 17.5q45 0 72.5 -27.5t27.5 -73.5v-507q0 -43 -27.5 -73t-72.5 -30q-29 0 -51.5 17.5t-32.5 52.5q-31 -31 -77 -53.5t-130 -22.5q-63 0 -123.5 27.5t-106.5 77t-75 116 t-29 142.5zM291 1174q0 -72 50 -123.5t124 -51.5t123 51.5t49 123.5q0 74 -49 124t-123 50t-124 -50.5t-50 -123.5z" />
<glyph unicode="&#xab;" horiz-adv-x="854" d="M35 2zM35 580q0 27 7 48t17 40l207 397q31 59 94 59q41 0 73 -28.5t32 -69.5q0 -29 -16 -57l-216 -389l218 -422q16 -33 16 -60q0 -43 -32 -69.5t-70 -26.5q-37 0 -57.5 13.5t-37.5 45.5l-215 439q-8 16 -14 36.5t-6 43.5zM381 580q0 27 7 48t17 40l207 397q31 59 94 59 q41 0 73 -28.5t32 -69.5q0 -29 -16 -57l-216 -389l218 -422q16 -33 16 -60q0 -43 -32 -69.5t-70 -26.5q-37 0 -57.5 13.5t-37.5 45.5l-215 439q-8 16 -14 36.5t-6 43.5z" />
<glyph unicode="&#xac;" horiz-adv-x="1075" d="M100 797q0 43 30 71.5t73 28.5h669q45 0 74 -28.5t29 -71.5v-705q0 -45 -28.5 -73.5t-74.5 -28.5q-47 0 -73.5 28.5t-26.5 73.5v602h-569q-43 0 -73 28t-30 75z" />
<glyph unicode="&#xad;" horiz-adv-x="870" d="M35 641q0 53 33.5 86t83.5 33h563q53 0 86 -33t33 -86t-33 -85t-86 -32h-563q-49 0 -83 32t-34 85z" />
<glyph unicode="&#xaf;" horiz-adv-x="886" d="M57 1378q0 47 28 75t73 28h577q47 0 75 -28t28 -75t-28 -74.5t-75 -27.5h-577q-45 0 -73 27.5t-28 74.5z" />
<glyph unicode="&#xb0;" horiz-adv-x="931" d="M100 1147q0 74 29 140.5t78 116.5t115.5 78.5t142.5 28.5t142.5 -28.5t115.5 -78.5t77.5 -116.5t28.5 -140.5q0 -76 -28.5 -142.5t-77.5 -115.5t-115.5 -77t-142.5 -28t-142.5 28t-115.5 77t-78 115.5t-29 142.5zM295 1147q0 -72 49 -121t121 -49t121 49t49 121t-49 120 t-121 48t-121 -48t-49 -120z" />
<glyph unicode="&#xb1;" horiz-adv-x="1085" d="M100 16zM100 119q0 43 30 71.5t73 28.5h669q45 0 74 -28.5t29 -71.5q0 -47 -28.5 -75t-74.5 -28h-669q-43 0 -73 28t-30 75zM100 797q0 43 30 71.5t73 28.5h231v238q0 47 27.5 74.5t73.5 27.5q47 0 75.5 -27.5t28.5 -74.5v-238h233q45 0 74 -28.5t29 -71.5 q0 -47 -28.5 -75t-74.5 -28h-233v-229q0 -45 -28.5 -72.5t-75.5 -27.5q-45 0 -73 27.5t-28 72.5v229h-231q-43 0 -73 28t-30 75z" />
<glyph unicode="&#xb2;" horiz-adv-x="655" d="M51 670zM51 743q0 16 8.5 31.5t18.5 28.5l250 254q51 51 78.5 99t27.5 89q0 45 -32.5 88t-98.5 43q-35 0 -62.5 -13.5t-50.5 -33.5q-29 -25 -63 -25q-29 0 -49.5 19.5t-20.5 54.5q0 31 23 57q47 53 104.5 73t120.5 20q70 0 122 -23.5t88 -63.5t54.5 -90.5t18.5 -105.5 q0 -92 -48 -164t-114 -139l-121 -121h221q35 0 55.5 -19.5t20.5 -54.5t-20.5 -56t-55.5 -21h-395q-35 0 -57.5 22.5t-22.5 50.5z" />
<glyph unicode="&#xb3;" horiz-adv-x="632" d="M49 662zM49 796q0 43 26.5 59.5t51.5 16.5q27 0 47 -16q35 -27 60.5 -36t54.5 -9q57 0 94 41t37 100t-31 95t-90 42q-43 4 -69.5 19.5t-26.5 56.5q0 35 21.5 48.5t48 22.5t48 23.5t21.5 51.5q0 27 -16.5 46t-46.5 19q-20 0 -30.5 -4t-23.5 -16q-23 -23 -53 -23 q-35 0 -54.5 23.5t-19.5 52.5q0 25 15.5 46t41 37.5t58.5 26t66 9.5q51 0 92 -17.5t69.5 -45t44 -64.5t15.5 -76q0 -49 -16.5 -83t-45.5 -56q61 -29 98 -90.5t37 -143.5q0 -61 -23.5 -113.5t-63.5 -92.5t-93 -62.5t-114 -22.5q-37 0 -78 9.5t-75 27t-55.5 42t-21.5 56.5z " />
<glyph unicode="&#xb4;" horiz-adv-x="821" d="M164 1296q0 25 16.5 51.5t50.5 36.5l390 123q27 9 45 9q41 0 65.5 -26t24.5 -69q0 -29 -15.5 -53.5t-50.5 -34.5l-397 -125q-25 -8 -47 -8q-37 0 -59.5 30t-22.5 66z" />
<glyph unicode="&#xb6;" horiz-adv-x="1368" d="M41 993q0 115 40 207t109.5 156.5t165 99.5t203.5 35h590q53 0 85 -32t32 -85v-1780q0 -55 -32 -86.5t-85 -31.5t-85 31.5t-32 86.5v1661h-205v-1661q0 -55 -34.5 -86.5t-81.5 -31.5q-55 0 -87 31.5t-32 86.5v904q-113 0 -213 32.5t-175 95t-119 154.5t-44 213zM276 993 q0 -68 26 -117t69 -80.5t100 -47t121 -15.5v522q-66 -4 -123 -19t-100 -45t-68 -78t-25 -120z" />
<glyph unicode="&#xb7;" horiz-adv-x="436" d="M98 731v137q0 51 34 84t83 33q55 0 87 -32.5t32 -84.5v-137q0 -55 -32 -86t-87 -31q-49 0 -83 31t-34 86z" />
<glyph unicode="&#xb8;" horiz-adv-x="475" d="M100 -426q0 20 6 43l68 225q10 35 36.5 52.5t59.5 17.5q39 0 71 -24.5t32 -71.5v-18.5t-4 -18.5l-68 -219q-25 -84 -104 -84q-35 0 -66 25.5t-31 72.5z" />
<glyph unicode="&#xb9;" horiz-adv-x="374" d="M27 672zM27 1237q0 16 12 39l117 207q10 16 28 25t41 9q29 0 51.5 -18t22.5 -53v-699q0 -35 -19.5 -55t-54.5 -20q-47 0 -62.5 27.5t-15.5 74.5v416l-16 -13q-10 -10 -31 -10q-29 0 -51 19.5t-22 50.5z" />
<glyph unicode="&#xba;" horiz-adv-x="931" d="M100 1174q0 76 29 142t78 116.5t115.5 79t142.5 28.5t142.5 -28.5t115.5 -79t77.5 -117t28.5 -141.5q0 -76 -28.5 -142.5t-77.5 -116t-115.5 -77t-142.5 -27.5t-142.5 27.5t-115.5 77t-78 116t-29 142.5zM291 1174q0 -72 50 -123.5t124 -51.5t123 51.5t49 123.5 q0 74 -49 124t-123 50t-124 -50.5t-50 -123.5z" />
<glyph unicode="&#xbb;" horiz-adv-x="854" d="M39 2zM39 98q0 27 16 60l217 422l-215 389q-16 29 -16 57q0 41 31.5 69.5t72.5 28.5q63 0 95 -59l206 -397q10 -18 17.5 -39.5t7.5 -48.5q0 -23 -6 -43.5t-14 -36.5l-215 -439q-16 -33 -37 -46t-58 -13q-39 0 -70.5 26.5t-31.5 69.5zM385 98q0 27 16 60l217 422l-215 389 q-16 29 -16 57q0 41 31.5 69.5t72.5 28.5q63 0 95 -59l206 -397q10 -18 17.5 -39.5t7.5 -48.5q0 -23 -6 -43.5t-14 -36.5l-215 -439q-16 -33 -37 -46t-58 -13q-39 0 -70.5 26.5t-31.5 69.5z" />
<glyph unicode="&#xbc;" horiz-adv-x="1265" d="M98 0zM99 1237q0 16 12 39l117 207q10 16 28 25t41 9q29 0 51.5 -18t22.5 -53v-699q0 -35 -19.5 -55t-54.5 -20q-47 0 -62.5 27.5t-15.5 74.5v416l-16 -13q-10 -10 -31 -10q-29 0 -51 19.5t-22 50.5zM131 74q0 23 10 41l776 1345q10 16 28 25.5t36 9.5q29 0 54.5 -20.5 t25.5 -55.5q0 -10 -4.5 -21.5t-8.5 -21.5l-768 -1343q-12 -23 -31.5 -31t-35.5 -8q-31 0 -56.5 22.5t-25.5 57.5zM635 195q0 23 14 47l313 549q21 36 68 36q29 0 53.5 -18t24.5 -53v-486q27 -4 43 -22.5t16 -48.5q0 -29 -16.5 -49.5t-42.5 -24.5v-68q0 -35 -19.5 -56 t-58.5 -21q-35 0 -56.5 21.5t-21.5 55.5v64h-242q-35 0 -55 22.5t-20 51.5zM823 274h129v222z" />
<glyph unicode="&#xbd;" horiz-adv-x="1437" d="M98 0zM99 1237q0 16 12 39l117 207q10 16 28 25t41 9q29 0 51.5 -18t22.5 -53v-699q0 -35 -19.5 -55t-54.5 -20q-47 0 -62.5 27.5t-15.5 74.5v416l-16 -13q-10 -10 -31 -10q-29 0 -51 19.5t-22 50.5zM131 74q0 23 10 41l776 1345q10 16 28 25.5t36 9.5q29 0 54.5 -20.5 t25.5 -55.5q0 -10 -4.5 -21.5t-8.5 -21.5l-768 -1343q-12 -23 -31.5 -31t-35.5 -8q-31 0 -56.5 22.5t-25.5 57.5zM784 53q0 16 8.5 31.5t18.5 28.5l250 254q51 51 78.5 99t27.5 89q0 45 -32.5 88t-98.5 43q-35 0 -62.5 -13.5t-50.5 -33.5q-29 -25 -63 -25q-29 0 -49.5 19.5 t-20.5 54.5q0 31 23 57q47 53 104.5 73t120.5 20q70 0 122 -23.5t88 -63.5t54.5 -90.5t18.5 -105.5q0 -92 -48 -164t-114 -139l-121 -121h221q35 0 55.5 -19.5t20.5 -54.5t-20.5 -56t-55.5 -21h-395q-35 0 -57.5 22.5t-22.5 50.5z" />
<glyph unicode="&#xbe;" horiz-adv-x="1372" d="M98 0zM98 796q0 43 26.5 59.5t51.5 16.5q27 0 47 -16q35 -27 60.5 -36t54.5 -9q57 0 94 41t37 100t-31 95t-90 42q-43 4 -69.5 19.5t-26.5 56.5q0 35 21.5 48.5t48 22.5t48 23.5t21.5 51.5q0 27 -16.5 46t-46.5 19q-20 0 -30.5 -4t-23.5 -16q-23 -23 -53 -23 q-35 0 -54.5 23.5t-19.5 52.5q0 25 15.5 46t41 37.5t58.5 26t66 9.5q51 0 92 -17.5t69.5 -45t44 -64.5t15.5 -76q0 -49 -16.5 -83t-45.5 -56q61 -29 98 -90.5t37 -143.5q0 -61 -23.5 -113.5t-63.5 -92.5t-93 -62.5t-114 -22.5q-37 0 -78 9.5t-75 27t-55.5 42t-21.5 56.5z M277 74q0 23 10 41l776 1345q10 16 28 25.5t36 9.5q29 0 54.5 -20.5t25.5 -55.5q0 -10 -4.5 -21.5t-8.5 -21.5l-768 -1343q-12 -23 -31.5 -31t-35.5 -8q-31 0 -56.5 22.5t-25.5 57.5zM740 195q0 23 14 47l313 549q21 36 68 36q29 0 53.5 -18t24.5 -53v-486q27 -4 43 -22.5 t16 -48.5q0 -29 -16.5 -49.5t-42.5 -24.5v-68q0 -35 -19.5 -56t-58.5 -21q-35 0 -56.5 21.5t-21.5 55.5v64h-242q-35 0 -55 22.5t-20 51.5zM928 274h129v222z" />
<glyph unicode="&#xbf;" horiz-adv-x="935" d="M92 -4q0 111 47 201t174 170q45 29 75 52t47.5 44.5t24.5 45t9 52.5q4 53 38 81t77 28q53 0 85.5 -34t32.5 -89q0 -98 -42 -170t-156 -141q-47 -29 -81 -52.5t-55.5 -48t-32.5 -54.5t-11 -69q0 -82 54 -128t132 -46q63 0 104 17.5t74 46.5q49 45 109 45q39 0 68.5 -31 t29.5 -76q0 -57 -43 -106q-51 -57 -131 -93t-197 -36q-96 0 -176 26.5t-137 77.5t-88 123t-31 164zM469 899v125q0 55 27.5 87t87.5 32q53 0 85.5 -32t32.5 -87v-125q0 -53 -32.5 -85t-85.5 -32q-51 0 -83 32t-32 85z" />
<glyph unicode="&#xc0;" horiz-adv-x="1206" d="M14 0zM14 102q0 23 9 45l466 1278q27 76 111 76q39 0 68.5 -18.5t44.5 -57.5l467 -1273q4 -10 6 -20.5t2 -22.5q0 -53 -37 -86t-84 -33q-35 0 -63.5 17.5t-45.5 62.5l-114 321h-484l-114 -321q-16 -43 -44 -61.5t-69 -18.5t-80 28.5t-39 83.5zM252 1818q0 43 24.5 69 t65.5 26q18 0 45 -9l389 -123q35 -10 51.5 -36.5t16.5 -51.5q0 -37 -22.5 -66.5t-59.5 -29.5q-23 0 -47 8l-398 125q-35 10 -50 35t-15 53zM438 600h328l-164 449z" />
<glyph unicode="&#xc1;" horiz-adv-x="1206" d="M14 0zM14 102q0 23 9 45l466 1278q27 76 111 76q39 0 68.5 -18.5t44.5 -57.5l467 -1273q4 -10 6 -20.5t2 -22.5q0 -53 -37 -86t-84 -33q-35 0 -63.5 17.5t-45.5 62.5l-114 321h-484l-114 -321q-16 -43 -44 -61.5t-69 -18.5t-80 28.5t-39 83.5zM359 1693q0 25 16.5 51.5 t50.5 36.5l390 123q27 9 45 9q41 0 65.5 -26t24.5 -69q0 -29 -15.5 -53.5t-50.5 -34.5l-397 -125q-25 -8 -47 -8q-37 0 -59.5 30t-22.5 66zM438 600h328l-164 449z" />
<glyph unicode="&#xc2;" horiz-adv-x="1206" d="M14 0zM14 102q0 23 9 45l466 1278q27 76 111 76q39 0 68.5 -18.5t44.5 -57.5l467 -1273q4 -10 6 -20.5t2 -22.5q0 -53 -37 -86t-84 -33q-35 0 -63.5 17.5t-45.5 62.5l-114 321h-484l-114 -321q-16 -43 -44 -61.5t-69 -18.5t-80 28.5t-39 83.5zM356 1654q0 25 5 41.5 t24 36.5l145 150q12 12 28.5 20t41.5 8t41 -8t28 -20l146 -150q18 -20 23 -36.5t5 -41.5q0 -33 -24.5 -57t-65.5 -24q-20 0 -37.5 9t-29.5 21l-86 84l-86 -84q-12 -12 -29.5 -21t-38.5 -9q-41 0 -65.5 24.5t-24.5 56.5zM438 600h328l-164 449z" />
<glyph unicode="&#xc3;" horiz-adv-x="1206" d="M14 0zM14 102q0 23 9 45l466 1278q27 76 111 76q39 0 68.5 -18.5t44.5 -57.5l467 -1273q4 -10 6 -20.5t2 -22.5q0 -53 -37 -86t-84 -33q-35 0 -63.5 17.5t-45.5 62.5l-114 321h-484l-114 -321q-16 -43 -44 -61.5t-69 -18.5t-80 28.5t-39 83.5zM258 1712q0 27 5.5 43 t21.5 43q27 47 74 81t112 34q53 0 90 -17.5t68 -40.5q39 -29 57.5 -39t40.5 -10q18 0 30.5 13.5t29.5 41.5q10 16 24.5 28.5t40.5 12.5q37 0 62.5 -21.5t25.5 -58.5q0 -27 -5 -43t-21 -43q-27 -47 -74 -80.5t-113 -33.5q-53 0 -89 18.5t-68 40.5q-41 27 -58.5 37t-40.5 10 q-18 0 -30.5 -13t-28.5 -42q-10 -16 -24.5 -28.5t-41.5 -12.5q-37 0 -62.5 21.5t-25.5 58.5zM438 600h328l-164 449z" />
<glyph unicode="&#xc4;" horiz-adv-x="1206" d="M14 0zM14 102q0 23 9 45l466 1278q27 76 111 76q39 0 68.5 -18.5t44.5 -57.5l467 -1273q4 -10 6 -20.5t2 -22.5q0 -53 -37 -86t-84 -33q-35 0 -63.5 17.5t-45.5 62.5l-114 321h-484l-114 -321q-16 -43 -44 -61.5t-69 -18.5t-80 28.5t-39 83.5zM346 1736v72 q0 43 26.5 68.5t67.5 25.5t66.5 -25.5t25.5 -68.5v-72q0 -41 -25.5 -65.5t-66.5 -24.5t-67.5 24.5t-26.5 65.5zM438 600h328l-164 449zM661 1736v72q0 43 26.5 68.5t67.5 25.5q43 0 68.5 -25.5t25.5 -68.5v-72q0 -41 -25.5 -65.5t-68.5 -24.5q-41 0 -67.5 24.5t-26.5 65.5z " />
<glyph unicode="&#xc5;" horiz-adv-x="1206" d="M14 0zM14 102q0 23 9 45l466 1278q27 76 111 76q39 0 68.5 -18.5t44.5 -57.5l467 -1273q4 -10 6 -20.5t2 -22.5q0 -53 -37 -86t-84 -33q-35 0 -63.5 17.5t-45.5 62.5l-114 321h-484l-114 -321q-16 -43 -44 -61.5t-69 -18.5t-80 28.5t-39 83.5zM385 1720q0 49 18 88 t48 66.5t69 43t80 15.5t79.5 -15.5t68.5 -43t47.5 -66.5t17.5 -88t-17.5 -87t-47.5 -65.5t-68.5 -42t-79.5 -14.5t-80 14.5t-69 42t-48 65.5t-18 87zM438 600h328l-164 449zM514 1720q0 -39 24.5 -60.5t61.5 -21.5q35 0 59.5 21.5t24.5 60.5q0 41 -25 63.5t-59 22.5 q-37 0 -61.5 -22.5t-24.5 -63.5z" />
<glyph unicode="&#xc6;" horiz-adv-x="1607" d="M14 104q0 16 4.5 32t14.5 34l719 1264q31 57 104 57h586q51 0 82.5 -32t31.5 -85t-31.5 -86t-82.5 -33h-467v-344h448q53 0 86 -32.5t33 -83.5q0 -55 -32.5 -86t-86.5 -31h-448v-442h475q53 0 85 -32t32 -85q0 -55 -32 -87t-85 -32h-590q-55 0 -88 25.5t-33 78.5v287 h-317l-186 -342q-18 -35 -46 -47t-57 -12q-45 0 -82 31.5t-37 82.5zM530 600h209v373z" />
<glyph unicode="&#xc7;" horiz-adv-x="1513" d="M59 0zM59 745q0 162 61.5 304.5t167 249t248 168t304.5 61.5q172 0 322.5 -71t256.5 -189q12 -16 22.5 -32.5t10.5 -45.5q0 -55 -33 -87t-86 -32q-39 0 -57.5 13.5t-28.5 25.5q-78 86 -181 134t-226 48q-115 0 -214.5 -43t-173 -117.5t-115.5 -174t-42 -212.5t42 -211 t115.5 -171.5t173 -116.5t214.5 -43q123 0 224 44t179 130q16 20 38 33.5t50 13.5q53 0 87 -31t34 -80q0 -55 -37 -96q-109 -117 -255 -183.5t-320 -66.5q-162 0 -304.5 60.5t-248 166t-167 247t-61.5 304.5zM624 -426q0 20 6 43l68 225q10 35 36.5 52.5t59.5 17.5 q39 0 71 -24.5t32 -71.5v-18.5t-4 -18.5l-68 -219q-25 -84 -104 -84q-35 0 -66 25.5t-31 72.5z" />
<glyph unicode="&#xc8;" horiz-adv-x="960" d="M98 0zM98 119v1255q0 53 34 85t83 32h586q51 0 82.5 -32t31.5 -85t-31.5 -86t-82.5 -33h-467v-344h448q53 0 86 -32.5t33 -83.5q0 -55 -32.5 -86t-86.5 -31h-448v-442h475q53 0 85 -32t32 -85q0 -55 -32 -87t-85 -32h-594q-49 0 -83 31.5t-34 87.5zM162 1818 q0 43 24.5 69t65.5 26q18 0 45 -9l389 -123q35 -10 51.5 -36.5t16.5 -51.5q0 -37 -22.5 -66.5t-59.5 -29.5q-23 0 -47 8l-398 125q-35 10 -50 35t-15 53z" />
<glyph unicode="&#xc9;" horiz-adv-x="960" d="M98 0zM98 119v1255q0 53 34 85t83 32h586q51 0 82.5 -32t31.5 -85t-31.5 -86t-82.5 -33h-467v-344h448q53 0 86 -32.5t33 -83.5q0 -55 -32.5 -86t-86.5 -31h-448v-442h475q53 0 85 -32t32 -85q0 -55 -32 -87t-85 -32h-594q-49 0 -83 31.5t-34 87.5zM258 1693 q0 25 16.5 51.5t50.5 36.5l390 123q27 9 45 9q41 0 65.5 -26t24.5 -69q0 -29 -15.5 -53.5t-50.5 -34.5l-397 -125q-25 -8 -47 -8q-37 0 -59.5 30t-22.5 66z" />
<glyph unicode="&#xca;" horiz-adv-x="960" d="M98 0zM98 119v1255q0 53 34 85t83 32h586q51 0 82.5 -32t31.5 -85t-31.5 -86t-82.5 -33h-467v-344h448q53 0 86 -32.5t33 -83.5q0 -55 -32.5 -86t-86.5 -31h-448v-442h475q53 0 85 -32t32 -85q0 -55 -32 -87t-85 -32h-594q-49 0 -83 31.5t-34 87.5zM268 1654q0 25 5 41.5 t24 36.5l145 150q12 12 28.5 20t41.5 8t41 -8t28 -20l146 -150q18 -20 23 -36.5t5 -41.5q0 -33 -24.5 -57t-65.5 -24q-20 0 -37.5 9t-29.5 21l-86 84l-86 -84q-12 -12 -29.5 -21t-38.5 -9q-41 0 -65.5 24.5t-24.5 56.5z" />
<glyph unicode="&#xcb;" horiz-adv-x="960" d="M98 0zM98 119v1255q0 53 34 85t83 32h586q51 0 82.5 -32t31.5 -85t-31.5 -86t-82.5 -33h-467v-344h448q53 0 86 -32.5t33 -83.5q0 -55 -32.5 -86t-86.5 -31h-448v-442h475q53 0 85 -32t32 -85q0 -55 -32 -87t-85 -32h-594q-49 0 -83 31.5t-34 87.5zM256 1736v72 q0 43 26.5 68.5t67.5 25.5t66.5 -25.5t25.5 -68.5v-72q0 -41 -25.5 -65.5t-66.5 -24.5t-67.5 24.5t-26.5 65.5zM571 1736v72q0 43 26.5 68.5t67.5 25.5q43 0 68.5 -25.5t25.5 -68.5v-72q0 -41 -25.5 -65.5t-68.5 -24.5q-41 0 -67.5 24.5t-26.5 65.5z" />
<glyph unicode="&#xcc;" horiz-adv-x="436" d="M-129 1818q0 43 24.5 69t65.5 26q18 0 45 -9l389 -123q35 -10 51.5 -36.5t16.5 -51.5q0 -37 -22.5 -66.5t-59.5 -29.5q-23 0 -47 8l-398 125q-35 10 -50 35t-15 53zM0 0zM98 109v1275q0 53 34 85t83 32q55 0 87 -31.5t32 -85.5v-1275q0 -55 -32 -87t-87 -32 q-49 0 -83 31.5t-34 87.5z" />
<glyph unicode="&#xcd;" horiz-adv-x="436" d="M-26 1693q0 25 16.5 51.5t50.5 36.5l390 123q27 9 45 9q41 0 65.5 -26t24.5 -69q0 -29 -15.5 -53.5t-50.5 -34.5l-397 -125q-25 -8 -47 -8q-37 0 -59.5 30t-22.5 66zM0 0zM98 109v1275q0 53 34 85t83 32q55 0 87 -31.5t32 -85.5v-1275q0 -55 -32 -87t-87 -32 q-49 0 -83 31.5t-34 87.5z" />
<glyph unicode="&#xce;" horiz-adv-x="436" d="M-27 1654q0 25 5 41.5t24 36.5l145 150q12 12 28.5 20t41.5 8t41 -8t28 -20l146 -150q18 -20 23 -36.5t5 -41.5q0 -33 -24.5 -57t-65.5 -24q-20 0 -37.5 9t-29.5 21l-86 84l-86 -84q-12 -12 -29.5 -21t-38.5 -9q-41 0 -65.5 24.5t-24.5 56.5zM0 0zM98 109v1275 q0 53 34 85t83 32q55 0 87 -31.5t32 -85.5v-1275q0 -55 -32 -87t-87 -32q-49 0 -83 31.5t-34 87.5z" />
<glyph unicode="&#xcf;" horiz-adv-x="436" d="M-34 1736v72q0 43 26.5 68.5t67.5 25.5t66.5 -25.5t25.5 -68.5v-72q0 -41 -25.5 -65.5t-66.5 -24.5t-67.5 24.5t-26.5 65.5zM0 0zM98 109v1275q0 53 34 85t83 32q55 0 87 -31.5t32 -85.5v-1275q0 -55 -32 -87t-87 -32q-49 0 -83 31.5t-34 87.5zM281 1736v72 q0 43 26.5 68.5t67.5 25.5q43 0 68.5 -25.5t25.5 -68.5v-72q0 -41 -25.5 -65.5t-68.5 -24.5q-41 0 -67.5 24.5t-26.5 65.5z" />
<glyph unicode="&#xd0;" horiz-adv-x="1277" d="M10 795q0 35 17.5 62.5t46.5 41.5v475q0 53 32.5 85t83.5 32h246q162 0 304.5 -55.5t249 -153.5t169 -235.5t62.5 -301.5t-62.5 -301t-169 -235t-249 -153.5t-304.5 -55.5h-246q-51 0 -83.5 31.5t-32.5 87.5v573q-63 27 -64 103zM309 236h127q113 0 213.5 37.5t175 105 t117.5 161t43 205.5q0 111 -43 205t-117.5 162t-175 105.5t-213.5 37.5h-127v-344h346q53 0 86 -32.5t33 -83.5q0 -55 -32.5 -86t-86.5 -31h-346v-442z" />
<glyph unicode="&#xd1;" horiz-adv-x="1157" d="M98 0zM98 109v1269q0 61 38 92t83 31q31 0 59.5 -13t45.5 -44l499 -893v833q0 53 32 85t87 32q51 0 84 -31.5t33 -85.5v-1284q0 -53 -36 -81.5t-79 -28.5q-35 0 -65.5 17.5t-51.5 53.5l-493 885v-837q0 -55 -32 -87t-87 -32q-49 0 -83 31.5t-34 87.5zM227 1712 q0 27 5.5 43t21.5 43q27 47 74 81t112 34q53 0 90 -17.5t68 -40.5q39 -29 57.5 -39t40.5 -10q18 0 30.5 13.5t29.5 41.5q10 16 24.5 28.5t40.5 12.5q37 0 62.5 -21.5t25.5 -58.5q0 -27 -5 -43t-21 -43q-27 -47 -74 -80.5t-113 -33.5q-53 0 -89 18.5t-68 40.5 q-41 27 -58.5 37t-40.5 10q-18 0 -30.5 -13t-28.5 -42q-10 -16 -24.5 -28.5t-41.5 -12.5q-37 0 -62.5 21.5t-25.5 58.5z" />
<glyph unicode="&#xd2;" horiz-adv-x="1683" d="M59 0zM59 745q0 162 61.5 304.5t167 249t248 168t304.5 61.5t304 -61.5t248.5 -168t168 -249t61.5 -304.5q0 -164 -61.5 -305t-168 -246.5t-249 -166t-303.5 -60.5q-162 0 -304.5 60.5t-248 166t-167 246.5t-61.5 305zM295 745q0 -113 42 -211t115.5 -171.5t173 -116.5 t214.5 -43q113 0 213 43t175 116.5t118 172t43 210.5q0 113 -43 212.5t-118 174t-175.5 117.5t-212.5 43q-115 0 -214.5 -43t-173 -117.5t-115.5 -174t-42 -212.5zM496 1818q0 43 24.5 69t65.5 26q18 0 45 -9l389 -123q35 -10 51.5 -36.5t16.5 -51.5q0 -37 -22.5 -66.5 t-59.5 -29.5q-23 0 -47 8l-398 125q-35 10 -50 35t-15 53z" />
<glyph unicode="&#xd3;" horiz-adv-x="1683" d="M59 0zM59 745q0 162 61.5 304.5t167 249t248 168t304.5 61.5t304 -61.5t248.5 -168t168 -249t61.5 -304.5q0 -164 -61.5 -305t-168 -246.5t-249 -166t-303.5 -60.5q-162 0 -304.5 60.5t-248 166t-167 246.5t-61.5 305zM295 745q0 -113 42 -211t115.5 -171.5t173 -116.5 t214.5 -43q113 0 213 43t175 116.5t118 172t43 210.5q0 113 -43 212.5t-118 174t-175.5 117.5t-212.5 43q-115 0 -214.5 -43t-173 -117.5t-115.5 -174t-42 -212.5zM594 1693q0 25 16.5 51.5t50.5 36.5l390 123q27 9 45 9q41 0 65.5 -26t24.5 -69q0 -29 -15.5 -53.5 t-50.5 -34.5l-397 -125q-25 -8 -47 -8q-37 0 -59.5 30t-22.5 66z" />
<glyph unicode="&#xd4;" horiz-adv-x="1683" d="M59 0zM59 745q0 162 61.5 304.5t167 249t248 168t304.5 61.5t304 -61.5t248.5 -168t168 -249t61.5 -304.5q0 -164 -61.5 -305t-168 -246.5t-249 -166t-303.5 -60.5q-162 0 -304.5 60.5t-248 166t-167 246.5t-61.5 305zM295 745q0 -113 42 -211t115.5 -171.5t173 -116.5 t214.5 -43q113 0 213 43t175 116.5t118 172t43 210.5q0 113 -43 212.5t-118 174t-175.5 117.5t-212.5 43q-115 0 -214.5 -43t-173 -117.5t-115.5 -174t-42 -212.5zM592 1654q0 25 5 41.5t24 36.5l145 150q12 12 28.5 20t41.5 8t41 -8t28 -20l146 -150q18 -20 23 -36.5 t5 -41.5q0 -33 -24.5 -57t-65.5 -24q-20 0 -37.5 9t-29.5 21l-86 84l-86 -84q-12 -12 -29.5 -21t-38.5 -9q-41 0 -65.5 24.5t-24.5 56.5z" />
<glyph unicode="&#xd5;" horiz-adv-x="1683" d="M59 0zM59 745q0 162 61.5 304.5t167 249t248 168t304.5 61.5t304 -61.5t248.5 -168t168 -249t61.5 -304.5q0 -164 -61.5 -305t-168 -246.5t-249 -166t-303.5 -60.5q-162 0 -304.5 60.5t-248 166t-167 246.5t-61.5 305zM295 745q0 -113 42 -211t115.5 -171.5t173 -116.5 t214.5 -43q113 0 213 43t175 116.5t118 172t43 210.5q0 113 -43 212.5t-118 174t-175.5 117.5t-212.5 43q-115 0 -214.5 -43t-173 -117.5t-115.5 -174t-42 -212.5zM497 1712q0 27 5.5 43t21.5 43q27 47 74 81t112 34q53 0 90 -17.5t68 -40.5q39 -29 57.5 -39t40.5 -10 q18 0 30.5 13.5t29.5 41.5q10 16 24.5 28.5t40.5 12.5q37 0 62.5 -21.5t25.5 -58.5q0 -27 -5 -43t-21 -43q-27 -47 -74 -80.5t-113 -33.5q-53 0 -89 18.5t-68 40.5q-41 27 -58.5 37t-40.5 10q-18 0 -30.5 -13t-28.5 -42q-10 -16 -24.5 -28.5t-41.5 -12.5q-37 0 -62.5 21.5 t-25.5 58.5z" />
<glyph unicode="&#xd6;" horiz-adv-x="1683" d="M59 0zM59 745q0 162 61.5 304.5t167 249t248 168t304.5 61.5t304 -61.5t248.5 -168t168 -249t61.5 -304.5q0 -164 -61.5 -305t-168 -246.5t-249 -166t-303.5 -60.5q-162 0 -304.5 60.5t-248 166t-167 246.5t-61.5 305zM295 745q0 -113 42 -211t115.5 -171.5t173 -116.5 t214.5 -43q113 0 213 43t175 116.5t118 172t43 210.5q0 113 -43 212.5t-118 174t-175.5 117.5t-212.5 43q-115 0 -214.5 -43t-173 -117.5t-115.5 -174t-42 -212.5zM584 1736v72q0 43 26.5 68.5t67.5 25.5t66.5 -25.5t25.5 -68.5v-72q0 -41 -25.5 -65.5t-66.5 -24.5 t-67.5 24.5t-26.5 65.5zM899 1736v72q0 43 26.5 68.5t67.5 25.5q43 0 68.5 -25.5t25.5 -68.5v-72q0 -41 -25.5 -65.5t-68.5 -24.5q-41 0 -67.5 24.5t-26.5 65.5z" />
<glyph unicode="&#xd7;" horiz-adv-x="886" d="M100 1030q0 33 30 68t73 35q18 0 37.5 -7.5t35.5 -23.5l164 -164l168 166q39 35 74 35q39 0 69.5 -32t30.5 -69q0 -41 -30 -73l-168 -168l166 -168q31 -35 30 -72q0 -41 -34.5 -71.5t-69.5 -30.5q-37 0 -70 32l-166 164l-161 -162q-31 -31 -72 -30q-39 0 -72 31.5 t-33 72.5q0 37 35 72l160 162l-164 164q-33 29 -33 69z" />
<glyph unicode="&#xd8;" horiz-adv-x="1683" d="M59 745q0 162 61.5 304.5t167 249t248 168t304.5 61.5q135 0 254.5 -42t218.5 -118l92 92q31 31 70 31q43 0 73.5 -34t30.5 -71q0 -33 -20 -55l-101 -106q78 -100 121 -222t43 -258q0 -164 -61.5 -305t-168 -246.5t-249 -166t-303.5 -60.5q-135 0 -256 42t-219 118 l-99 -96q-31 -31 -65 -31q-41 0 -75 27.5t-34 74.5q0 18 8.5 40t24.5 38l96 90q-76 98 -119 219t-43 256zM295 745q0 -86 24.5 -162.5t69.5 -142.5l756 758q-66 43 -142.5 68.5t-162.5 25.5q-115 0 -214.5 -43t-173 -117.5t-115.5 -174t-42 -212.5zM532 297 q66 -47 144 -70.5t164 -23.5q113 0 213 43t175 116.5t118 171.5t43 211q0 86 -26 166t-73 146z" />
<glyph unicode="&#xd9;" horiz-adv-x="1189" d="M98 0zM98 500v884q0 53 34 85t83 32q55 0 87 -31.5t32 -85.5v-884q0 -59 18.5 -111.5t52 -91.5t82 -60.5t109.5 -21.5t109.5 21.5t82 60.5t51 91t17.5 112v884q0 53 32 85t87 32q53 0 85 -31.5t32 -85.5v-884q0 -109 -34 -204t-98.5 -165t-156.5 -109.5t-207 -39.5 t-207 39.5t-156.5 109.5t-99.5 165t-35 204zM250 1818q0 43 24.5 69t65.5 26q18 0 45 -9l389 -123q35 -10 51.5 -36.5t16.5 -51.5q0 -37 -22.5 -66.5t-59.5 -29.5q-23 0 -47 8l-398 125q-35 10 -50 35t-15 53z" />
<glyph unicode="&#xda;" horiz-adv-x="1189" d="M98 0zM98 500v884q0 53 34 85t83 32q55 0 87 -31.5t32 -85.5v-884q0 -59 18.5 -111.5t52 -91.5t82 -60.5t109.5 -21.5t109.5 21.5t82 60.5t51 91t17.5 112v884q0 53 32 85t87 32q53 0 85 -31.5t32 -85.5v-884q0 -109 -34 -204t-98.5 -165t-156.5 -109.5t-207 -39.5 t-207 39.5t-156.5 109.5t-99.5 165t-35 204zM352 1693q0 25 16.5 51.5t50.5 36.5l390 123q27 9 45 9q41 0 65.5 -26t24.5 -69q0 -29 -15.5 -53.5t-50.5 -34.5l-397 -125q-25 -8 -47 -8q-37 0 -59.5 30t-22.5 66z" />
<glyph unicode="&#xdb;" horiz-adv-x="1189" d="M98 0zM98 500v884q0 53 34 85t83 32q55 0 87 -31.5t32 -85.5v-884q0 -59 18.5 -111.5t52 -91.5t82 -60.5t109.5 -21.5t109.5 21.5t82 60.5t51 91t17.5 112v884q0 53 32 85t87 32q53 0 85 -31.5t32 -85.5v-884q0 -109 -34 -204t-98.5 -165t-156.5 -109.5t-207 -39.5 t-207 39.5t-156.5 109.5t-99.5 165t-35 204zM352 1654q0 25 5 41.5t24 36.5l145 150q12 12 28.5 20t41.5 8t41 -8t28 -20l146 -150q18 -20 23 -36.5t5 -41.5q0 -33 -24.5 -57t-65.5 -24q-20 0 -37.5 9t-29.5 21l-86 84l-86 -84q-12 -12 -29.5 -21t-38.5 -9q-41 0 -65.5 24.5 t-24.5 56.5z" />
<glyph unicode="&#xdc;" horiz-adv-x="1189" d="M98 0zM98 500v884q0 53 34 85t83 32q55 0 87 -31.5t32 -85.5v-884q0 -59 18.5 -111.5t52 -91.5t82 -60.5t109.5 -21.5t109.5 21.5t82 60.5t51 91t17.5 112v884q0 53 32 85t87 32q53 0 85 -31.5t32 -85.5v-884q0 -109 -34 -204t-98.5 -165t-156.5 -109.5t-207 -39.5 t-207 39.5t-156.5 109.5t-99.5 165t-35 204zM342 1736v72q0 43 26.5 68.5t67.5 25.5t66.5 -25.5t25.5 -68.5v-72q0 -41 -25.5 -65.5t-66.5 -24.5t-67.5 24.5t-26.5 65.5zM657 1736v72q0 43 26.5 68.5t67.5 25.5q43 0 68.5 -25.5t25.5 -68.5v-72q0 -41 -25.5 -65.5 t-68.5 -24.5q-41 0 -67.5 24.5t-26.5 65.5z" />
<glyph unicode="&#xdd;" horiz-adv-x="929" d="M10 0zM10 1389q0 53 38 82.5t79 29.5q29 0 55.5 -12t42.5 -41l236 -442l244 442q16 29 41.5 41t54.5 12q43 0 81 -29.5t38 -82.5q0 -14 -3.5 -30t-13.5 -32l-317 -569v-649q0 -55 -33 -87t-86 -32q-55 0 -88 31.5t-33 87.5v649l-319 569q-8 16 -12.5 28.5t-4.5 33.5z M221 1693q0 25 16.5 51.5t50.5 36.5l390 123q27 9 45 9q41 0 65.5 -26t24.5 -69q0 -29 -15.5 -53.5t-50.5 -34.5l-397 -125q-25 -8 -47 -8q-37 0 -59.5 30t-22.5 66z" />
<glyph unicode="&#xde;" horiz-adv-x="1060" d="M98 109v1275q0 53 34 85t83 32q55 0 87 -31.5t32 -85.5v-131h174q106 0 201.5 -34.5t165 -99t110.5 -156t41 -205.5q0 -115 -41 -207t-110.5 -156.5t-165 -99.5t-201.5 -35h-174v-151q0 -55 -32 -87t-87 -32q-49 0 -83 31.5t-34 87.5zM334 498h174q57 0 109.5 17t90 51 t60.5 82t23 110q0 61 -23 109t-60.5 82t-90 52.5t-109.5 18.5h-174v-522z" />
<glyph unicode="&#xdf;" horiz-adv-x="1054" d="M98 111v1101q0 80 27 151t74 124t114.5 84t149.5 31q72 0 137.5 -24t115.5 -70t79.5 -113.5t29.5 -153.5q0 -158 -118 -260q121 -49 200.5 -164t79.5 -295q0 -111 -34.5 -207t-96 -168.5t-147.5 -114.5t-189 -42q-61 0 -91 35.5t-30 83.5q0 41 26 78.5t85 37.5 q102 0 171 81t69 216q0 90 -18.5 150.5t-52.5 98.5t-82 56.5t-105 26.5q-47 6 -73 32.5t-26 69.5t25.5 71t64.5 32q123 12 123 155q0 70 -34.5 111t-100.5 41t-101.5 -46t-35.5 -110v-1099q0 -59 -32 -90t-87 -31q-49 0 -83 28.5t-34 92.5z" />
<glyph unicode="&#xe0;" d="M59 0zM59 565q0 125 45.5 234.5t126 191.5t191 130t240.5 48q115 0 202.5 -38.5t147.5 -104.5q0 53 33.5 85t82.5 32q55 0 87 -32t32 -85v-917q0 -55 -31.5 -87t-87.5 -32q-49 0 -82.5 31.5t-33.5 87.5v6q-29 -29 -67 -56.5t-84 -48t-97 -33t-102 -12.5q-131 0 -242 47 t-190.5 128t-125 190.5t-45.5 234.5zM295 565q0 -76 28.5 -142.5t78 -115.5t116 -77.5t144.5 -28.5q74 0 138 28.5t110 77.5t73 115.5t27 142.5t-27 143.5t-73 118t-110 79t-138 28.5q-78 0 -144.5 -28.5t-116 -79t-78 -118t-28.5 -143.5zM311 1458q0 43 24.5 69t65.5 26 q18 0 45 -9l389 -123q35 -10 51.5 -36.5t16.5 -51.5q0 -37 -22.5 -66.5t-59.5 -29.5q-23 0 -47 8l-398 125q-35 10 -50 35t-15 53z" />
<glyph unicode="&#xe1;" d="M59 0zM59 565q0 125 45.5 234.5t126 191.5t191 130t240.5 48q115 0 202.5 -38.5t147.5 -104.5q0 53 33.5 85t82.5 32q55 0 87 -32t32 -85v-917q0 -55 -31.5 -87t-87.5 -32q-49 0 -82.5 31.5t-33.5 87.5v6q-29 -29 -67 -56.5t-84 -48t-97 -33t-102 -12.5q-131 0 -242 47 t-190.5 128t-125 190.5t-45.5 234.5zM295 565q0 -76 28.5 -142.5t78 -115.5t116 -77.5t144.5 -28.5q74 0 138 28.5t110 77.5t73 115.5t27 142.5t-27 143.5t-73 118t-110 79t-138 28.5q-78 0 -144.5 -28.5t-116 -79t-78 -118t-28.5 -143.5zM428 1333q0 25 16.5 51.5 t50.5 36.5l390 123q27 9 45 9q41 0 65.5 -26t24.5 -69q0 -29 -15.5 -53.5t-50.5 -34.5l-397 -125q-25 -8 -47 -8q-37 0 -59.5 30t-22.5 66z" />
<glyph unicode="&#xe2;" d="M59 0zM59 565q0 125 45.5 234.5t126 191.5t191 130t240.5 48q115 0 202.5 -38.5t147.5 -104.5q0 53 33.5 85t82.5 32q55 0 87 -32t32 -85v-917q0 -55 -31.5 -87t-87.5 -32q-49 0 -82.5 31.5t-33.5 87.5v6q-29 -29 -67 -56.5t-84 -48t-97 -33t-102 -12.5q-131 0 -242 47 t-190.5 128t-125 190.5t-45.5 234.5zM295 565q0 -76 28.5 -142.5t78 -115.5t116 -77.5t144.5 -28.5q74 0 138 28.5t110 77.5t73 115.5t27 142.5t-27 143.5t-73 118t-110 79t-138 28.5q-78 0 -144.5 -28.5t-116 -79t-78 -118t-28.5 -143.5zM424 1294q0 25 5 41.5t24 36.5 l145 150q12 12 28.5 20t41.5 8t41 -8t28 -20l146 -150q18 -20 23 -36.5t5 -41.5q0 -33 -24.5 -57t-65.5 -24q-20 0 -37.5 9t-29.5 21l-86 84l-86 -84q-12 -12 -29.5 -21t-38.5 -9q-41 0 -65.5 24.5t-24.5 56.5z" />
<glyph unicode="&#xe3;" d="M59 0zM59 565q0 125 45.5 234.5t126 191.5t191 130t240.5 48q115 0 202.5 -38.5t147.5 -104.5q0 53 33.5 85t82.5 32q55 0 87 -32t32 -85v-917q0 -55 -31.5 -87t-87.5 -32q-49 0 -82.5 31.5t-33.5 87.5v6q-29 -29 -67 -56.5t-84 -48t-97 -33t-102 -12.5q-131 0 -242 47 t-190.5 128t-125 190.5t-45.5 234.5zM295 565q0 -76 28.5 -142.5t78 -115.5t116 -77.5t144.5 -28.5q74 0 138 28.5t110 77.5t73 115.5t27 142.5t-27 143.5t-73 118t-110 79t-138 28.5q-78 0 -144.5 -28.5t-116 -79t-78 -118t-28.5 -143.5zM327 1352q0 27 5.5 43t21.5 43 q27 47 74 81t112 34q53 0 90 -17.5t68 -40.5q39 -29 57.5 -39t40.5 -10q18 0 30.5 13.5t29.5 41.5q10 16 24.5 28.5t40.5 12.5q37 0 62.5 -21.5t25.5 -58.5q0 -27 -5 -43t-21 -43q-27 -47 -74 -80.5t-113 -33.5q-53 0 -89 18.5t-68 40.5q-41 27 -58.5 37t-40.5 10 q-18 0 -30.5 -13t-28.5 -42q-10 -16 -24.5 -28.5t-41.5 -12.5q-37 0 -62.5 21.5t-25.5 58.5z" />
<glyph unicode="&#xe4;" d="M59 0zM59 565q0 125 45.5 234.5t126 191.5t191 130t240.5 48q115 0 202.5 -38.5t147.5 -104.5q0 53 33.5 85t82.5 32q55 0 87 -32t32 -85v-917q0 -55 -31.5 -87t-87.5 -32q-49 0 -82.5 31.5t-33.5 87.5v6q-29 -29 -67 -56.5t-84 -48t-97 -33t-102 -12.5q-131 0 -242 47 t-190.5 128t-125 190.5t-45.5 234.5zM295 565q0 -76 28.5 -142.5t78 -115.5t116 -77.5t144.5 -28.5q74 0 138 28.5t110 77.5t73 115.5t27 142.5t-27 143.5t-73 118t-110 79t-138 28.5q-78 0 -144.5 -28.5t-116 -79t-78 -118t-28.5 -143.5zM414 1376v72q0 43 26.5 68.5 t67.5 25.5t66.5 -25.5t25.5 -68.5v-72q0 -41 -25.5 -65.5t-66.5 -24.5t-67.5 24.5t-26.5 65.5zM729 1376v72q0 43 26.5 68.5t67.5 25.5q43 0 68.5 -25.5t25.5 -68.5v-72q0 -41 -25.5 -65.5t-68.5 -24.5q-41 0 -67.5 24.5t-26.5 65.5z" />
<glyph unicode="&#xe5;" d="M59 0zM59 565q0 125 45.5 234.5t126 191.5t191 130t240.5 48q115 0 202.5 -38.5t147.5 -104.5q0 53 33.5 85t82.5 32q55 0 87 -32t32 -85v-917q0 -55 -31.5 -87t-87.5 -32q-49 0 -82.5 31.5t-33.5 87.5v6q-29 -29 -67 -56.5t-84 -48t-97 -33t-102 -12.5q-131 0 -242 47 t-190.5 128t-125 190.5t-45.5 234.5zM295 565q0 -76 28.5 -142.5t78 -115.5t116 -77.5t144.5 -28.5q74 0 138 28.5t110 77.5t73 115.5t27 142.5t-27 143.5t-73 118t-110 79t-138 28.5q-78 0 -144.5 -28.5t-116 -79t-78 -118t-28.5 -143.5zM449 1440q0 49 18 88t48 66.5 t69 43t80 15.5t79.5 -15.5t68.5 -43t47.5 -66.5t17.5 -88t-17.5 -87t-47.5 -65.5t-68.5 -42t-79.5 -14.5t-80 14.5t-69 42t-48 65.5t-18 87zM578 1440q0 -39 24.5 -60.5t61.5 -21.5q35 0 59.5 21.5t24.5 60.5q0 41 -25 63.5t-59 22.5q-37 0 -61.5 -22.5t-24.5 -63.5z" />
<glyph unicode="&#xe6;" horiz-adv-x="2258" d="M59 565q0 125 45.5 234.5t126 191.5t191 130t240.5 48q115 0 202.5 -38.5t147.5 -104.5q0 53 33.5 85t82.5 32t79 -25.5t38 -68.5q72 57 161 88.5t191 31.5q123 0 232.5 -47t191.5 -125.5t130.5 -184t48.5 -222.5q0 -59 -31 -90t-86 -31h-832q10 -57 43 -106.5t81 -85 t105.5 -56t116.5 -20.5q76 0 139.5 26.5t112.5 75.5q20 18 45 29.5t48 11.5q47 0 78.5 -35t31.5 -82q0 -25 -6 -47t-25 -41q-80 -88 -188.5 -131t-235.5 -43q-102 0 -191 31t-161 88q-16 -94 -117 -94q-49 0 -82.5 31.5t-33.5 87.5v6q-29 -29 -67 -56.5t-84 -48t-97 -33 t-102 -12.5q-131 0 -242 47t-190.5 128t-125 190.5t-45.5 234.5zM295 565q0 -76 28.5 -142.5t78 -115.5t116 -77.5t144.5 -28.5q74 0 138 28.5t110 77.5t73 115.5t27 142.5t-27 143.5t-73 118t-110 79t-138 28.5q-78 0 -144.5 -28.5t-116 -79t-78 -118t-28.5 -143.5z M1253 664h689q-10 57 -43 106t-80 86t-105 57.5t-117 20.5t-116.5 -20.5t-103.5 -57.5t-78.5 -86t-45.5 -106z" />
<glyph unicode="&#xe7;" horiz-adv-x="1189" d="M59 0zM59 565q0 125 47.5 234.5t129 191.5t191.5 130t235 48q129 0 244.5 -48t191.5 -140q14 -18 20 -38.5t6 -37.5q0 -49 -36.5 -86t-83.5 -37q-43 0 -78 35q-53 53 -121 85t-143 32q-78 0 -144.5 -28.5t-116 -79t-78 -118t-28.5 -143.5t28.5 -142.5t78 -115.5 t116 -77.5t144.5 -28.5q76 0 143 27.5t117 80.5q20 20 39.5 27.5t42.5 7.5q47 0 85.5 -35t38.5 -84q0 -41 -36 -82q-84 -86 -196 -132t-234 -46q-125 0 -235 47t-191.5 128t-129 190.5t-47.5 234.5zM448 -426q0 20 6 43l68 225q10 35 36.5 52.5t59.5 17.5q39 0 71 -24.5 t32 -71.5v-18.5t-4 -18.5l-68 -219q-25 -84 -104 -84q-35 0 -66 25.5t-31 72.5z" />
<glyph unicode="&#xe8;" horiz-adv-x="1323" d="M59 0zM59 565q0 125 47.5 234.5t129 191.5t191.5 130t235 48q123 0 232.5 -47t191 -125.5t130 -184t48.5 -222.5q0 -59 -31 -90t-86 -31h-832q10 -57 43 -106.5t81 -85t105.5 -56t117.5 -20.5q76 0 139 26.5t112 75.5q20 18 45 29.5t48 11.5q47 0 78.5 -35t31.5 -82 q0 -25 -6 -47t-25 -41q-80 -88 -188.5 -131t-234.5 -43q-125 0 -235 47t-191.5 128t-129 190.5t-47.5 234.5zM297 1458q0 43 24.5 69t65.5 26q18 0 45 -9l389 -123q35 -10 51.5 -36.5t16.5 -51.5q0 -37 -22.5 -66.5t-59.5 -29.5q-23 0 -47 8l-398 125q-35 10 -50 35t-15 53z M317 664h689q-10 57 -43 106t-80 86t-104.5 57.5t-116.5 20.5t-117 -20.5t-104 -57.5t-78.5 -86t-45.5 -106z" />
<glyph unicode="&#xe9;" horiz-adv-x="1323" d="M59 0zM59 565q0 125 47.5 234.5t129 191.5t191.5 130t235 48q123 0 232.5 -47t191 -125.5t130 -184t48.5 -222.5q0 -59 -31 -90t-86 -31h-832q10 -57 43 -106.5t81 -85t105.5 -56t117.5 -20.5q76 0 139 26.5t112 75.5q20 18 45 29.5t48 11.5q47 0 78.5 -35t31.5 -82 q0 -25 -6 -47t-25 -41q-80 -88 -188.5 -131t-234.5 -43q-125 0 -235 47t-191.5 128t-129 190.5t-47.5 234.5zM317 664h689q-10 57 -43 106t-80 86t-104.5 57.5t-116.5 20.5t-117 -20.5t-104 -57.5t-78.5 -86t-45.5 -106zM406 1333q0 25 16.5 51.5t50.5 36.5l390 123 q27 9 45 9q41 0 65.5 -26t24.5 -69q0 -29 -15.5 -53.5t-50.5 -34.5l-397 -125q-25 -8 -47 -8q-37 0 -59.5 30t-22.5 66z" />
<glyph unicode="&#xea;" horiz-adv-x="1323" d="M59 0zM59 565q0 125 47.5 234.5t129 191.5t191.5 130t235 48q123 0 232.5 -47t191 -125.5t130 -184t48.5 -222.5q0 -59 -31 -90t-86 -31h-832q10 -57 43 -106.5t81 -85t105.5 -56t117.5 -20.5q76 0 139 26.5t112 75.5q20 18 45 29.5t48 11.5q47 0 78.5 -35t31.5 -82 q0 -25 -6 -47t-25 -41q-80 -88 -188.5 -131t-234.5 -43q-125 0 -235 47t-191.5 128t-129 190.5t-47.5 234.5zM317 664h689q-10 57 -43 106t-80 86t-104.5 57.5t-116.5 20.5t-117 -20.5t-104 -57.5t-78.5 -86t-45.5 -106zM418 1294q0 25 5 41.5t24 36.5l145 150 q12 12 28.5 20t41.5 8t41 -8t28 -20l146 -150q18 -20 23 -36.5t5 -41.5q0 -33 -24.5 -57t-65.5 -24q-20 0 -37.5 9t-29.5 21l-86 84l-86 -84q-12 -12 -29.5 -21t-38.5 -9q-41 0 -65.5 24.5t-24.5 56.5z" />
<glyph unicode="&#xeb;" horiz-adv-x="1323" d="M59 0zM59 565q0 125 47.5 234.5t129 191.5t191.5 130t235 48q123 0 232.5 -47t191 -125.5t130 -184t48.5 -222.5q0 -59 -31 -90t-86 -31h-832q10 -57 43 -106.5t81 -85t105.5 -56t117.5 -20.5q76 0 139 26.5t112 75.5q20 18 45 29.5t48 11.5q47 0 78.5 -35t31.5 -82 q0 -25 -6 -47t-25 -41q-80 -88 -188.5 -131t-234.5 -43q-125 0 -235 47t-191.5 128t-129 190.5t-47.5 234.5zM317 664h689q-10 57 -43 106t-80 86t-104.5 57.5t-116.5 20.5t-117 -20.5t-104 -57.5t-78.5 -86t-45.5 -106zM406 1376v72q0 43 26.5 68.5t67.5 25.5t66.5 -25.5 t25.5 -68.5v-72q0 -41 -25.5 -65.5t-66.5 -24.5t-67.5 24.5t-26.5 65.5zM721 1376v72q0 43 26.5 68.5t67.5 25.5q43 0 68.5 -25.5t25.5 -68.5v-72q0 -41 -25.5 -65.5t-68.5 -24.5q-41 0 -67.5 24.5t-26.5 65.5z" />
<glyph unicode="&#xec;" horiz-adv-x="614" d="M0 0zM0 1458q0 43 24.5 69t65.5 26q18 0 45 -9l389 -123q35 -10 51.5 -36.5t16.5 -51.5q0 -37 -22.5 -66.5t-59.5 -29.5q-23 0 -47 8l-398 125q-35 10 -50 35t-15 53zM248 109v917q0 53 34 85t83 32q55 0 87 -32t32 -85v-917q0 -55 -32 -87t-87 -32q-49 0 -83 31.5 t-34 87.5z" />
<glyph unicode="&#xed;" horiz-adv-x="614" d="M4 0zM4 1333q0 25 16.5 51.5t50.5 36.5l390 123q27 9 45 9q41 0 65.5 -26t24.5 -69q0 -29 -15.5 -53.5t-50.5 -34.5l-397 -125q-25 -8 -47 -8q-37 0 -59.5 30t-22.5 66zM127 109v917q0 53 34 85t83 32q55 0 87 -32t32 -85v-917q0 -55 -32 -87t-87 -32q-49 0 -83 31.5 t-34 87.5z" />
<glyph unicode="&#xee;" horiz-adv-x="483" d="M-2 1294q0 25 5 41.5t24 36.5l145 150q12 12 28.5 20t41.5 8t41 -8t28 -20l146 -150q18 -20 23 -36.5t5 -41.5q0 -33 -24.5 -57t-65.5 -24q-20 0 -37.5 9t-29.5 21l-86 84l-86 -84q-12 -12 -29.5 -21t-38.5 -9q-41 0 -65.5 24.5t-24.5 56.5zM0 0zM121 109v917q0 53 34 85 t83 32q55 0 87 -32t32 -85v-917q0 -55 -32 -87t-87 -32q-49 0 -83 31.5t-34 87.5z" />
<glyph unicode="&#xef;" horiz-adv-x="509" d="M2 0zM2 1376v72q0 43 26.5 68.5t67.5 25.5t66.5 -25.5t25.5 -68.5v-72q0 -41 -25.5 -65.5t-66.5 -24.5t-67.5 24.5t-26.5 65.5zM133 109v917q0 53 34 85t83 32q55 0 87 -32t32 -85v-917q0 -55 -32 -87t-87 -32q-49 0 -83 31.5t-34 87.5zM317 1376v72q0 43 26.5 68.5 t67.5 25.5q43 0 68.5 -25.5t25.5 -68.5v-72q0 -41 -25.5 -65.5t-68.5 -24.5q-41 0 -67.5 24.5t-26.5 65.5z" />
<glyph unicode="&#xf0;" horiz-adv-x="1220" d="M98 489q0 98 37 187.5t99.5 157t145.5 107.5t175 40h28.5t30.5 -4l-114 170l-152 -96q-23 -14 -53 -15q-35 0 -67.5 28t-32.5 77q0 55 53 88l139 88l-61 94q-23 33 -23 62q0 51 39 86.5t86 35.5q23 0 48.5 -12t41.5 -39l68 -102l192 123q27 14 53 14q39 0 70 -30.5 t31 -73.5q0 -53 -53 -86l-181 -115l308 -457q47 -72 79.5 -157t32.5 -171q0 -106 -40 -198t-108.5 -161t-161.5 -107.5t-200 -38.5q-104 0 -197.5 38.5t-163 107.5t-109.5 161t-40 198zM336 489q0 -57 21.5 -107t58.5 -87t87 -58.5t105 -21.5q57 0 107.5 21.5t87.5 58.5 t58.5 87t21.5 107q0 55 -21.5 105.5t-58.5 88.5t-87 59.5t-108 21.5q-55 0 -105 -21.5t-87 -59.5t-58.5 -88t-21.5 -106z" />
<glyph unicode="&#xf1;" horiz-adv-x="1210" d="M98 0zM98 106v934q0 47 30 75t71 28q100 0 118 -103q53 59 131 94t175 35q111 0 200.5 -39.5t153 -109.5t97.5 -165t34 -206v-543q0 -55 -32 -85.5t-85 -30.5q-51 0 -84 30.5t-33 85.5v543q0 59 -18 111.5t-52 91.5t-83 61.5t-111 22.5q-61 0 -112.5 -22.5t-88 -60.5 t-56 -90t-19.5 -114v-543q0 -55 -32 -85.5t-87 -30.5q-49 0 -83 30.5t-34 85.5zM256 1352q0 27 5.5 43t21.5 43q27 47 74 81t112 34q53 0 90 -17.5t68 -40.5q39 -29 57.5 -39t40.5 -10q18 0 30.5 13.5t29.5 41.5q10 16 24.5 28.5t40.5 12.5q37 0 62.5 -21.5t25.5 -58.5 q0 -27 -5 -43t-21 -43q-27 -47 -74 -80.5t-113 -33.5q-53 0 -89 18.5t-68 40.5q-41 27 -58.5 37t-40.5 10q-18 0 -30.5 -13t-28.5 -42q-10 -16 -24.5 -28.5t-41.5 -12.5q-37 0 -62.5 21.5t-25.5 58.5z" />
<glyph unicode="&#xf2;" horiz-adv-x="1323" d="M59 0zM59 565q0 125 47.5 234.5t129 191.5t191.5 130t235 48t234.5 -48t191 -130t129 -191.5t47.5 -234.5t-47.5 -234.5t-129 -190.5t-191.5 -128t-234 -47q-125 0 -235 47t-191.5 128t-129 190.5t-47.5 234.5zM295 565q0 -76 28.5 -142.5t78 -115.5t116 -77.5 t144.5 -28.5q76 0 142 28.5t116.5 77.5t79 115.5t28.5 142.5t-28.5 143.5t-79 118t-116.5 79t-142 28.5q-78 0 -144.5 -28.5t-116 -79t-78 -118t-28.5 -143.5zM309 1458q0 43 24.5 69t65.5 26q18 0 45 -9l389 -123q35 -10 51.5 -36.5t16.5 -51.5q0 -37 -22.5 -66.5 t-59.5 -29.5q-23 0 -47 8l-398 125q-35 10 -50 35t-15 53z" />
<glyph unicode="&#xf3;" horiz-adv-x="1323" d="M59 0zM59 565q0 125 47.5 234.5t129 191.5t191.5 130t235 48t234.5 -48t191 -130t129 -191.5t47.5 -234.5t-47.5 -234.5t-129 -190.5t-191.5 -128t-234 -47q-125 0 -235 47t-191.5 128t-129 190.5t-47.5 234.5zM295 565q0 -76 28.5 -142.5t78 -115.5t116 -77.5 t144.5 -28.5q76 0 142 28.5t116.5 77.5t79 115.5t28.5 142.5t-28.5 143.5t-79 118t-116.5 79t-142 28.5q-78 0 -144.5 -28.5t-116 -79t-78 -118t-28.5 -143.5zM414 1333q0 25 16.5 51.5t50.5 36.5l390 123q27 9 45 9q41 0 65.5 -26t24.5 -69q0 -29 -15.5 -53.5t-50.5 -34.5 l-397 -125q-25 -8 -47 -8q-37 0 -59.5 30t-22.5 66z" />
<glyph unicode="&#xf4;" horiz-adv-x="1323" d="M59 0zM59 565q0 125 47.5 234.5t129 191.5t191.5 130t235 48t234.5 -48t191 -130t129 -191.5t47.5 -234.5t-47.5 -234.5t-129 -190.5t-191.5 -128t-234 -47q-125 0 -235 47t-191.5 128t-129 190.5t-47.5 234.5zM295 565q0 -76 28.5 -142.5t78 -115.5t116 -77.5 t144.5 -28.5q76 0 142 28.5t116.5 77.5t79 115.5t28.5 142.5t-28.5 143.5t-79 118t-116.5 79t-142 28.5q-78 0 -144.5 -28.5t-116 -79t-78 -118t-28.5 -143.5zM416 1294q0 25 5 41.5t24 36.5l145 150q12 12 28.5 20t41.5 8t41 -8t28 -20l146 -150q18 -20 23 -36.5t5 -41.5 q0 -33 -24.5 -57t-65.5 -24q-20 0 -37.5 9t-29.5 21l-86 84l-86 -84q-12 -12 -29.5 -21t-38.5 -9q-41 0 -65.5 24.5t-24.5 56.5z" />
<glyph unicode="&#xf5;" horiz-adv-x="1323" d="M59 0zM59 565q0 125 47.5 234.5t129 191.5t191.5 130t235 48t234.5 -48t191 -130t129 -191.5t47.5 -234.5t-47.5 -234.5t-129 -190.5t-191.5 -128t-234 -47q-125 0 -235 47t-191.5 128t-129 190.5t-47.5 234.5zM295 565q0 -76 28.5 -142.5t78 -115.5t116 -77.5 t144.5 -28.5q76 0 142 28.5t116.5 77.5t79 115.5t28.5 142.5t-28.5 143.5t-79 118t-116.5 79t-142 28.5q-78 0 -144.5 -28.5t-116 -79t-78 -118t-28.5 -143.5zM317 1352q0 27 5.5 43t21.5 43q27 47 74 81t112 34q53 0 90 -17.5t68 -40.5q39 -29 57.5 -39t40.5 -10 q18 0 30.5 13.5t29.5 41.5q10 16 24.5 28.5t40.5 12.5q37 0 62.5 -21.5t25.5 -58.5q0 -27 -5 -43t-21 -43q-27 -47 -74 -80.5t-113 -33.5q-53 0 -89 18.5t-68 40.5q-41 27 -58.5 37t-40.5 10q-18 0 -30.5 -13t-28.5 -42q-10 -16 -24.5 -28.5t-41.5 -12.5q-37 0 -62.5 21.5 t-25.5 58.5z" />
<glyph unicode="&#xf6;" horiz-adv-x="1323" d="M59 0zM59 565q0 125 47.5 234.5t129 191.5t191.5 130t235 48t234.5 -48t191 -130t129 -191.5t47.5 -234.5t-47.5 -234.5t-129 -190.5t-191.5 -128t-234 -47q-125 0 -235 47t-191.5 128t-129 190.5t-47.5 234.5zM295 565q0 -76 28.5 -142.5t78 -115.5t116 -77.5 t144.5 -28.5q76 0 142 28.5t116.5 77.5t79 115.5t28.5 142.5t-28.5 143.5t-79 118t-116.5 79t-142 28.5q-78 0 -144.5 -28.5t-116 -79t-78 -118t-28.5 -143.5zM408 1376v72q0 43 26.5 68.5t67.5 25.5t66.5 -25.5t25.5 -68.5v-72q0 -41 -25.5 -65.5t-66.5 -24.5t-67.5 24.5 t-26.5 65.5zM723 1376v72q0 43 26.5 68.5t67.5 25.5q43 0 68.5 -25.5t25.5 -68.5v-72q0 -41 -25.5 -65.5t-68.5 -24.5q-41 0 -67.5 24.5t-26.5 65.5z" />
<glyph unicode="&#xf7;" horiz-adv-x="1075" d="M100 797q0 43 30 71.5t73 28.5h669q45 0 74 -28.5t29 -71.5q0 -47 -28.5 -75t-74.5 -28h-669q-43 0 -73 28t-30 75zM449 379v106q0 45 27.5 74t74.5 29t75.5 -29t28.5 -74v-106q0 -47 -28.5 -75t-75.5 -28t-74.5 28t-27.5 75zM449 1094v106q0 47 27.5 76t74.5 29 t75.5 -29t28.5 -76v-106q0 -47 -28.5 -74t-75.5 -27t-74.5 27t-27.5 74z" />
<glyph unicode="&#xf8;" horiz-adv-x="1323" d="M59 565q0 125 47.5 234.5t129 191.5t191.5 130t235 48q98 0 186 -29.5t162 -82.5l43 43q33 33 69 33q43 0 74 -34t31 -73t-31 -70l-43 -43q53 -74 82 -161.5t29 -186.5q0 -125 -47.5 -234.5t-129 -190.5t-191.5 -128t-234 -47q-100 0 -188.5 29t-162.5 82l-47 -45 q-31 -31 -71 -31q-39 0 -71 30.5t-32 71.5q0 43 29 72l49 47q-53 74 -81 160t-28 184zM295 565q0 -94 47 -172l496 492q-80 49 -176 49q-76 0 -142.5 -28.5t-117 -79t-79 -118t-28.5 -143.5zM481 248q82 -47 181 -47q76 0 142 28.5t116.5 77.5t79 115.5t28.5 142.5 q0 98 -49 178z" />
<glyph unicode="&#xf9;" horiz-adv-x="1169" d="M98 0zM98 463v563q0 55 32 86t85 31q51 0 84 -31t33 -86v-563q0 -121 64.5 -193.5t189.5 -72.5t186.5 71.5t61.5 194.5v563q0 55 31.5 86t86.5 31q49 0 83 -31t34 -86v-934q0 -47 -29.5 -74.5t-70.5 -27.5q-100 0 -119 102q-41 -59 -110.5 -94t-166.5 -35 q-111 0 -198.5 37t-149 102.5t-94.5 157.5t-33 203zM231 1458q0 43 24.5 69t65.5 26q18 0 45 -9l389 -123q35 -10 51.5 -36.5t16.5 -51.5q0 -37 -22.5 -66.5t-59.5 -29.5q-23 0 -47 8l-398 125q-35 10 -50 35t-15 53z" />
<glyph unicode="&#xfa;" horiz-adv-x="1169" d="M98 0zM98 463v563q0 55 32 86t85 31q51 0 84 -31t33 -86v-563q0 -121 64.5 -193.5t189.5 -72.5t186.5 71.5t61.5 194.5v563q0 55 31.5 86t86.5 31q49 0 83 -31t34 -86v-934q0 -47 -29.5 -74.5t-70.5 -27.5q-100 0 -119 102q-41 -59 -110.5 -94t-166.5 -35 q-111 0 -198.5 37t-149 102.5t-94.5 157.5t-33 203zM340 1333q0 25 16.5 51.5t50.5 36.5l390 123q27 9 45 9q41 0 65.5 -26t24.5 -69q0 -29 -15.5 -53.5t-50.5 -34.5l-397 -125q-25 -8 -47 -8q-37 0 -59.5 30t-22.5 66z" />
<glyph unicode="&#xfb;" horiz-adv-x="1169" d="M98 0zM98 463v563q0 55 32 86t85 31q51 0 84 -31t33 -86v-563q0 -121 64.5 -193.5t189.5 -72.5t186.5 71.5t61.5 194.5v563q0 55 31.5 86t86.5 31q49 0 83 -31t34 -86v-934q0 -47 -29.5 -74.5t-70.5 -27.5q-100 0 -119 102q-41 -59 -110.5 -94t-166.5 -35 q-111 0 -198.5 37t-149 102.5t-94.5 157.5t-33 203zM340 1294q0 25 5 41.5t24 36.5l145 150q12 12 28.5 20t41.5 8t41 -8t28 -20l146 -150q18 -20 23 -36.5t5 -41.5q0 -33 -24.5 -57t-65.5 -24q-20 0 -37.5 9t-29.5 21l-86 84l-86 -84q-12 -12 -29.5 -21t-38.5 -9 q-41 0 -65.5 24.5t-24.5 56.5z" />
<glyph unicode="&#xfc;" horiz-adv-x="1169" d="M98 0zM98 463v563q0 55 32 86t85 31q51 0 84 -31t33 -86v-563q0 -121 64.5 -193.5t189.5 -72.5t186.5 71.5t61.5 194.5v563q0 55 31.5 86t86.5 31q49 0 83 -31t34 -86v-934q0 -47 -29.5 -74.5t-70.5 -27.5q-100 0 -119 102q-41 -59 -110.5 -94t-166.5 -35 q-111 0 -198.5 37t-149 102.5t-94.5 157.5t-33 203zM328 1376v72q0 43 26.5 68.5t67.5 25.5t66.5 -25.5t25.5 -68.5v-72q0 -41 -25.5 -65.5t-66.5 -24.5t-67.5 24.5t-26.5 65.5zM643 1376v72q0 43 26.5 68.5t67.5 25.5q43 0 68.5 -25.5t25.5 -68.5v-72q0 -41 -25.5 -65.5 t-68.5 -24.5q-41 0 -67.5 24.5t-26.5 65.5z" />
<glyph unicode="&#xfd;" horiz-adv-x="937" d="M14 0zM14 1024q0 53 36 86t85 33q37 0 66.5 -19.5t44.5 -60.5l225 -641l221 641q14 41 44 60.5t67 19.5q49 0 84 -33t35 -86q0 -27 -9 -49l-524 -1417q-16 -43 -46 -62.5t-64 -19.5q-45 0 -82 32.5t-37 83.5q0 20 8 43l176 461l-319 877q-4 14 -7.5 25.5t-3.5 25.5z M225 1333q0 25 16.5 51.5t50.5 36.5l390 123q27 9 45 9q41 0 65.5 -26t24.5 -69q0 -29 -15.5 -53.5t-50.5 -34.5l-397 -125q-25 -8 -47 -8q-37 0 -59.5 30t-22.5 66z" />
<glyph unicode="&#xfe;" d="M98 -406v1885q0 53 34 84.5t85 31.5q55 0 87 -31.5t32 -84.5v-457q55 68 143 107.5t205 39.5t226.5 -48t193.5 -130t134 -191.5t50 -234.5t-50 -234.5t-134 -190.5t-193.5 -128t-226.5 -47q-53 0 -104.5 12.5t-96.5 34t-83 48t-64 57.5v-523q0 -55 -32 -86.5t-87 -31.5 q-51 0 -85 31.5t-34 86.5zM336 565q0 -76 26.5 -142.5t73.5 -115.5t110.5 -77.5t137.5 -28.5q76 0 143.5 28.5t116.5 77.5t78 115.5t29 142.5t-29 143.5t-78 118t-116.5 79t-143.5 28.5q-74 0 -137.5 -28.5t-110.5 -79t-73.5 -118t-26.5 -143.5z" />
<glyph unicode="&#xff;" horiz-adv-x="937" d="M14 0zM14 1024q0 53 36 86t85 33q37 0 66.5 -19.5t44.5 -60.5l225 -641l221 641q14 41 44 60.5t67 19.5q49 0 84 -33t35 -86q0 -27 -9 -49l-524 -1417q-16 -43 -46 -62.5t-64 -19.5q-45 0 -82 32.5t-37 83.5q0 20 8 43l176 461l-319 877q-4 14 -7.5 25.5t-3.5 25.5z M217 1376v72q0 43 26.5 68.5t67.5 25.5t66.5 -25.5t25.5 -68.5v-72q0 -41 -25.5 -65.5t-66.5 -24.5t-67.5 24.5t-26.5 65.5zM532 1376v72q0 43 26.5 68.5t67.5 25.5q43 0 68.5 -25.5t25.5 -68.5v-72q0 -41 -25.5 -65.5t-68.5 -24.5q-41 0 -67.5 24.5t-26.5 65.5z" />
<glyph unicode="&#x152;" horiz-adv-x="2242" d="M59 745q0 162 61.5 304.5t167 249t248 168t304.5 61.5q158 0 295 -57.5t243 -157.5v61q0 53 34 85t83 32h586q51 0 82.5 -32t31.5 -85t-31.5 -86t-82.5 -33h-467v-344h448q53 0 86 -32.5t33 -83.5q0 -55 -32.5 -86t-86.5 -31h-448v-442h475q53 0 85 -32t32 -85 q0 -55 -32 -87t-85 -32h-594q-49 0 -83 31.5t-34 87.5v61q-106 -100 -243.5 -156.5t-294.5 -56.5q-162 0 -304.5 60.5t-248 166t-167 247t-61.5 304.5zM295 745q0 -113 42 -211t115.5 -171.5t173 -116.5t214.5 -43q113 0 213 43t175 116.5t118 172t43 210.5q0 113 -43 212.5 t-118 174t-175.5 117.5t-212.5 43q-115 0 -214.5 -43t-173 -117.5t-115.5 -174t-42 -212.5z" />
<glyph unicode="&#x153;" horiz-adv-x="2267" d="M59 565q0 125 47.5 234.5t129 191.5t191.5 130t235 48q143 0 266 -62.5t205 -166.5q84 104 207 166.5t266 62.5q123 0 232.5 -47t191 -125.5t130 -184t48.5 -222.5q0 -59 -31 -90t-86 -31h-831q10 -57 42.5 -106.5t81 -85t105.5 -56t117 -20.5q76 0 139 26.5t113 75.5 q20 18 44.5 29.5t47.5 11.5q47 0 78.5 -35t31.5 -82q0 -25 -6 -47t-24 -41q-80 -88 -188.5 -131t-235.5 -43q-143 0 -266 61.5t-207 166.5q-82 -104 -205 -166t-266 -62q-125 0 -235 47t-191.5 128t-129 190.5t-47.5 234.5zM295 565q0 -76 28.5 -142.5t78 -115.5t116 -77.5 t144.5 -28.5q76 0 142 28.5t116.5 77.5t79 115.5t28.5 142.5t-28.5 143.5t-79 118t-116.5 79t-142 28.5q-78 0 -144.5 -28.5t-116 -79t-78 -118t-28.5 -143.5zM1262 664h688q-10 57 -43 106t-80 86t-104.5 57.5t-116.5 20.5t-116.5 -20.5t-104 -57.5t-79 -86t-44.5 -106z " />
<glyph unicode="&#x178;" horiz-adv-x="929" d="M10 0zM10 1389q0 53 38 82.5t79 29.5q29 0 55.5 -12t42.5 -41l236 -442l244 442q16 29 41.5 41t54.5 12q43 0 81 -29.5t38 -82.5q0 -14 -3.5 -30t-13.5 -32l-317 -569v-649q0 -55 -33 -87t-86 -32q-55 0 -88 31.5t-33 87.5v649l-319 569q-8 16 -12.5 28.5t-4.5 33.5z M211 1736v72q0 43 26.5 68.5t67.5 25.5t66.5 -25.5t25.5 -68.5v-72q0 -41 -25.5 -65.5t-66.5 -24.5t-67.5 24.5t-26.5 65.5zM526 1736v72q0 43 26.5 68.5t67.5 25.5q43 0 68.5 -25.5t25.5 -68.5v-72q0 -41 -25.5 -65.5t-68.5 -24.5q-41 0 -67.5 24.5t-26.5 65.5z" />
<glyph unicode="&#x2c6;" horiz-adv-x="665" d="M88 1257q0 25 5 41.5t24 36.5l145 150q12 12 28.5 20t41.5 8t41 -8t28 -20l146 -150q18 -20 23 -36.5t5 -41.5q0 -33 -24.5 -57t-65.5 -24q-20 0 -37.5 9t-29.5 21l-86 84l-86 -84q-12 -12 -29.5 -21t-38.5 -9q-41 0 -65.5 24.5t-24.5 56.5z" />
<glyph unicode="&#x2dc;" horiz-adv-x="886" d="M100 1315q0 27 5.5 43t21.5 43q27 47 74 81t112 34q53 0 90 -17.5t68 -40.5q39 -29 57.5 -39t40.5 -10q18 0 30.5 13.5t29.5 41.5q10 16 24.5 28.5t40.5 12.5q37 0 62.5 -21.5t25.5 -58.5q0 -27 -5 -43t-21 -43q-27 -47 -74 -80.5t-113 -33.5q-53 0 -89 18.5t-68 40.5 q-41 27 -58.5 37t-40.5 10q-18 0 -30.5 -13t-28.5 -42q-10 -16 -24.5 -28.5t-41.5 -12.5q-37 0 -62.5 21.5t-25.5 58.5z" />
<glyph unicode="&#x2000;" horiz-adv-x="966" />
<glyph unicode="&#x2001;" horiz-adv-x="1933" />
<glyph unicode="&#x2002;" horiz-adv-x="966" />
<glyph unicode="&#x2003;" horiz-adv-x="1933" />
<glyph unicode="&#x2004;" horiz-adv-x="644" />
<glyph unicode="&#x2005;" horiz-adv-x="483" />
<glyph unicode="&#x2006;" horiz-adv-x="322" />
<glyph unicode="&#x2007;" horiz-adv-x="322" />
<glyph unicode="&#x2008;" horiz-adv-x="241" />
<glyph unicode="&#x2009;" horiz-adv-x="386" />
<glyph unicode="&#x200a;" horiz-adv-x="107" />
<glyph unicode="&#x2010;" horiz-adv-x="870" d="M35 641q0 53 33.5 86t83.5 33h563q53 0 86 -33t33 -86t-33 -85t-86 -32h-563q-49 0 -83 32t-34 85z" />
<glyph unicode="&#x2011;" horiz-adv-x="870" d="M35 641q0 53 33.5 86t83.5 33h563q53 0 86 -33t33 -86t-33 -85t-86 -32h-563q-49 0 -83 32t-34 85z" />
<glyph unicode="&#x2012;" horiz-adv-x="870" d="M35 641q0 53 33.5 86t83.5 33h563q53 0 86 -33t33 -86t-33 -85t-86 -32h-563q-49 0 -83 32t-34 85z" />
<glyph unicode="&#x2013;" horiz-adv-x="1280" d="M35 641q0 53 33.5 86t83.5 33h974q55 0 87 -33t32 -86t-31.5 -85t-87.5 -32h-974q-49 0 -83 32t-34 85z" />
<glyph unicode="&#x2014;" horiz-adv-x="1443" d="M35 641q0 53 33.5 86t83.5 33h1138q51 0 84 -33t33 -86t-33 -85t-84 -32h-1138q-49 0 -83 32t-34 85z" />
<glyph unicode="&#x2018;" horiz-adv-x="331" d="M10 1473q0 53 32 78.5t69 25.5q31 0 56.5 -16.5t35.5 -51.5l110 -348q8 -31 9 -49q0 -49 -32 -73.5t-69 -24.5q-74 0 -96 69l-107 349q-8 25 -8 41z" />
<glyph unicode="&#x2019;" horiz-adv-x="331" d="M10 1112q0 18 8 49l111 348q10 35 35.5 51.5t56.5 16.5q37 0 69 -25.5t32 -78.5q0 -16 -9 -41l-106 -349q-23 -70 -96 -69q-37 0 -69 24.5t-32 73.5z" />
<glyph unicode="&#x201a;" horiz-adv-x="331" d="M10 -98q0 18 8 49l111 348q10 35 35.5 51.5t56.5 16.5q37 0 69 -26t32 -79q0 -16 -9 -41l-106 -348q-23 -70 -96 -70q-37 0 -69 25t-32 74z" />
<glyph unicode="&#x201c;" horiz-adv-x="645" d="M10 1473q0 53 32 78.5t69 25.5q31 0 56.5 -16.5t35.5 -51.5l110 -348q8 -31 9 -49q0 -49 -32 -73.5t-69 -24.5q-74 0 -96 69l-107 349q-8 25 -8 41zM326 1473q0 53 31.5 78.5t68.5 25.5q31 0 56.5 -16.5t35.5 -51.5l111 -348q8 -31 8 -49q0 -49 -32 -73.5t-68 -24.5 q-74 0 -97 69l-106 349q-8 25 -8 41z" />
<glyph unicode="&#x201d;" horiz-adv-x="645" d="M10 1112q0 18 8 49l111 348q10 35 35.5 51.5t56.5 16.5q37 0 69 -25.5t32 -78.5q0 -16 -9 -41l-106 -349q-23 -70 -96 -69q-37 0 -69 24.5t-32 73.5zM326 1112q0 18 8 49l110 348q10 35 36 51.5t57 16.5q37 0 68.5 -25.5t31.5 -78.5q0 -16 -8 -41l-107 -349 q-23 -70 -96 -69q-37 0 -68.5 24.5t-31.5 73.5z" />
<glyph unicode="&#x201e;" horiz-adv-x="645" d="M10 -98q0 18 8 49l111 348q10 35 35.5 51.5t56.5 16.5q37 0 69 -26t32 -79q0 -16 -9 -41l-106 -348q-23 -70 -96 -70q-37 0 -69 25t-32 74zM326 -98q0 18 8 49l110 348q10 35 36 51.5t57 16.5q37 0 68.5 -26t31.5 -79q0 -16 -8 -41l-107 -348q-23 -70 -96 -70 q-37 0 -68.5 25t-31.5 74z" />
<glyph unicode="&#x2022;" horiz-adv-x="946" d="M98 795q0 78 30 146.5t80 118.5t118.5 79.5t146.5 29.5q76 0 144.5 -29.5t118.5 -79.5t80 -119t30 -146q0 -78 -30 -146.5t-80 -119t-118.5 -79t-144.5 -28.5q-78 0 -146.5 28.5t-118.5 79t-80 119t-30 146.5z" />
<glyph unicode="&#x2026;" horiz-adv-x="1110" d="M98 109v135q0 51 34 83.5t83 32.5q55 0 87 -32.5t32 -83.5v-135q0 -55 -32 -87t-87 -32q-49 0 -83 31.5t-34 87.5zM438 109v135q0 51 32 83.5t85 32.5t86 -32.5t33 -83.5v-135q0 -55 -33 -87t-86 -32t-85 31.5t-32 87.5zM778 109v135q0 51 32 83.5t85 32.5t86 -32.5 t33 -83.5v-135q0 -55 -33 -87t-86 -32t-85 31.5t-32 87.5z" />
<glyph unicode="&#x202f;" horiz-adv-x="386" />
<glyph unicode="&#x2039;" horiz-adv-x="507" d="M35 580q0 27 7 48t17 40l207 397q31 59 94 59q41 0 73 -28.5t32 -69.5q0 -29 -16 -57l-216 -389l218 -422q16 -33 16 -60q0 -43 -32 -69.5t-70 -26.5q-37 0 -57.5 13.5t-37.5 45.5l-215 439q-8 16 -14 36.5t-6 43.5z" />
<glyph unicode="&#x203a;" horiz-adv-x="507" d="M39 98q0 27 16 60l217 422l-215 389q-16 29 -16 57q0 41 31.5 69.5t72.5 28.5q63 0 95 -59l206 -397q10 -18 17.5 -39.5t7.5 -48.5q0 -23 -6 -43.5t-14 -36.5l-215 -439q-16 -33 -37 -46t-58 -13q-39 0 -70.5 26.5t-31.5 69.5z" />
<glyph unicode="&#x205f;" horiz-adv-x="483" />
<glyph unicode="&#x20ac;" horiz-adv-x="1632" d="M82 590q0 37 17.5 59.5t43.5 32.5q-2 16 -2 31.5v31.5v34t2 34q-35 10 -48 35.5t-13 56.5q0 41 26.5 66.5t73.5 27.5q39 115 112 212.5t170 168t213 109.5t245 39q170 0 322.5 -71t256.5 -189q12 -14 22.5 -32.5t10.5 -45.5q0 -55 -33 -87t-86 -32q-39 0 -57.5 13.5 t-28.5 25.5q-78 86 -181.5 134t-225.5 48q-160 0 -287 -82t-197 -211h746q41 0 66.5 -26.5t25.5 -67.5q0 -43 -25.5 -68.5t-66.5 -25.5h-803q-4 -16 -4 -32.5v-33.5q0 -16 1 -30.5t3 -30.5h590q41 0 67.5 -25.5t26.5 -68.5q0 -41 -26.5 -66.5t-67.5 -25.5h-535 q33 -66 83 -120t113.5 -93t136.5 -60.5t153 -21.5q123 0 224 44t179 130q16 20 37.5 33.5t50.5 13.5q53 0 87 -31t34 -80q0 -55 -37 -96q-109 -117 -255 -183.5t-320 -66.5q-129 0 -247 39t-214 109.5t-169 168t-112 214.5q-43 0 -70.5 25.5t-27.5 66.5z" />
<glyph unicode="&#x2122;" horiz-adv-x="1417" d="M100 1425q0 33 19.5 49.5t50.5 16.5h418q29 0 47 -16.5t18 -49.5q0 -35 -18.5 -51t-46.5 -16h-150v-547q0 -68 -63 -68q-68 0 -68 68v547h-137q-31 0 -50.5 16.5t-19.5 50.5zM731 811v625q0 33 20.5 49t45.5 16q23 0 39 -10t26 -33l160 -452l162 452q8 23 26.5 33 t38.5 10q27 0 47.5 -14t20.5 -49v-627q0 -68 -70 -68q-63 0 -63 68v246l-99 -271q-16 -43 -59 -43q-20 0 -37.5 10.5t-27.5 32.5l-97 267v-242q0 -68 -67 -68q-66 0 -66 68z" />
<glyph unicode="&#x25fc;" horiz-adv-x="1146" d="M0 0v1147h1147v-1147h-1147z" />
</font>
</defs>
</svg>
